<svg width="12" height="12" viewBox="0 0 12 12" fill="none" xmlns="http://www.w3.org/2000/svg">
<path d="M11.6686 6.92095C11.5204 6.84076 11.3373 6.86913 11.2203 6.99012C10.4357 7.80141 9.38219 8.24833 8.25364 8.24833C5.97803 8.24833 4.12682 6.39712 4.12682 4.12151C4.12682 2.73973 4.81384 1.45572 5.96466 0.687338C6.10441 0.593781 6.16514 0.418626 6.11285 0.258712C6.06056 0.0987972 5.90815 -0.00671808 5.74003 0.000316273C2.57471 0.13697 0 2.74219 0 5.99734C0 9.31488 2.68471 12 6.00265 12C8.82657 12 11.242 10.0339 11.8557 7.3341C11.893 7.16996 11.8165 7.00114 11.6686 6.92095Z" fill="white"/>
</svg>
