<svg width="12" height="13" viewBox="0 0 12 13" fill="none" xmlns="http://www.w3.org/2000/svg">
<path d="M6.0037 -2.16943e-08C2.69306 -9.73133e-09 7.61966e-06 2.91596 7.6077e-06 6.5C7.59574e-06 10.084 2.69306 13 6.0037 13C9.31434 13 12.0074 10.084 12.0074 6.5C12.0074 2.91596 9.31434 -3.36572e-08 6.0037 -2.16943e-08ZM8.39043 6.72773L4.88828 9.16523C4.84724 9.19405 4.79984 9.20834 4.75294 9.20834C4.7119 9.20834 4.67036 9.19722 4.63324 9.17528C4.55261 9.12768 4.50278 9.03668 4.50278 8.9375L4.50278 4.0625C4.50278 3.96332 4.55261 3.87232 4.63324 3.82472C4.71239 3.77764 4.81157 3.78054 4.88828 3.83477L8.39043 6.27227C8.46177 6.32199 8.50525 6.40796 8.50525 6.5C8.50525 6.59204 8.46177 6.67799 8.39043 6.72773Z" fill="black"/>
</svg>
