<svg width="214" height="173" viewBox="0 0 214 173" fill="none" xmlns="http://www.w3.org/2000/svg">
<g filter="url(#filter0_d_1_558)">
<path d="M83.3431 116.786V116.489C83.3431 116.219 83.5612 116 83.8303 116C84.0993 116 84.3174 116.219 84.3174 116.489V116.786C84.3174 117.056 84.0993 117.275 83.8303 117.275C83.5612 117.275 83.3431 117.056 83.3431 116.786ZM78.6319 118.314C78.7221 118.47 78.8859 118.558 79.0543 118.558C79.1369 118.558 79.2207 118.537 79.2973 118.493C79.5304 118.358 79.6103 118.059 79.4759 117.825L79.3277 117.568C79.1932 117.334 78.8952 117.254 78.6623 117.389C78.4292 117.524 78.3493 117.822 78.4837 118.056L78.6319 118.314ZM88.363 118.493C88.4397 118.537 88.5234 118.558 88.6061 118.558C88.7744 118.558 88.9382 118.471 89.0284 118.314L89.1767 118.056C89.3112 117.823 89.2314 117.524 88.9983 117.389C88.7654 117.254 88.4674 117.334 88.3329 117.568L88.1846 117.825C88.0501 118.059 88.1299 118.358 88.363 118.493ZM92.1035 122.065C92.1862 122.065 92.27 122.044 92.3467 121.999L92.6035 121.851C92.8365 121.716 92.9163 121.417 92.7817 121.183C92.6472 120.95 92.3493 120.869 92.1162 121.004L91.8595 121.153C91.6265 121.288 91.5467 121.587 91.6812 121.821C91.7714 121.977 91.9351 122.065 92.1035 122.065ZM93.3699 130.73C92.7373 131.987 90.9695 132.832 88.971 132.832C87.601 132.832 86.3176 132.436 85.4452 131.757C84.9454 132.101 84.4178 132.322 83.895 132.39C83.8712 132.393 83.8473 132.394 83.8242 132.394C83.8048 132.393 83.7852 132.392 83.7656 132.39C83.2427 132.322 82.7151 132.101 82.2153 131.757C81.3429 132.436 80.0596 132.832 78.6895 132.832C76.691 132.832 74.9232 131.987 74.2906 130.73C74.221 130.592 74.221 130.428 74.2906 130.29C74.7574 129.362 75.8248 128.658 77.1754 128.353C76.4746 127.355 76.2187 126.175 76.5361 125.166C76.5749 125.043 76.6611 124.94 76.7756 124.88C77.5761 124.461 78.5912 124.431 79.5795 124.779C79.7262 124.291 79.957 123.867 80.2698 123.536C80.3769 123.423 80.5314 123.368 80.6855 123.388C80.9411 123.421 81.1977 123.491 81.4518 123.594C81.9672 122.501 82.7269 121.686 83.6269 121.272C83.7559 121.213 83.9043 121.213 84.0333 121.272C84.933 121.686 85.6925 122.5 86.208 123.592C86.4621 123.49 86.719 123.421 86.975 123.388C87.1293 123.368 87.2836 123.423 87.3907 123.536C87.7035 123.867 87.9343 124.291 88.081 124.778C89.0693 124.431 90.0844 124.462 90.8848 124.88C90.9993 124.939 91.0855 125.042 91.1243 125.166C91.4418 126.175 91.1859 127.355 90.485 128.353C91.8357 128.658 92.9031 129.362 93.3699 130.29C93.4395 130.428 93.4395 130.592 93.3699 130.73ZM87.4713 129.344C88.0003 129.212 88.5258 128.941 88.9887 128.551C89.9342 127.756 90.4295 126.597 90.2461 125.661C89.6738 125.438 88.9601 125.473 88.2567 125.756C88.3243 126.668 88.1603 127.7 87.755 128.715C87.6689 128.931 87.5739 129.141 87.4713 129.344ZM82.306 124.07C82.8672 124.47 83.3907 125.025 83.8292 125.689C84.2699 125.018 84.7929 124.464 85.3527 124.066C84.9775 123.253 84.4404 122.617 83.8302 122.266C83.219 122.618 82.6812 123.255 82.306 124.07ZM78.6716 128.551C79.1345 128.941 79.6602 129.212 80.1893 129.344C80.0866 129.141 79.9917 128.931 79.9055 128.715C79.5003 127.7 79.3363 126.668 79.4038 125.756C78.7004 125.472 77.9867 125.438 77.4143 125.661C77.2309 126.597 77.7262 127.756 78.6716 128.551ZM81.4457 131.109C81.2359 130.898 81.0355 130.664 80.8477 130.412C79.8823 130.395 78.8752 129.998 78.0453 129.3C78.0104 129.27 77.9761 129.241 77.9422 129.211C76.7556 129.358 75.7612 129.849 75.2933 130.51C75.8621 131.312 77.207 131.855 78.6894 131.855C79.7418 131.855 80.7484 131.577 81.4457 131.109ZM83.6409 127.426C83.1554 126.209 82.3437 125.205 81.4905 124.699C81.4666 124.687 81.4441 124.674 81.423 124.66C81.2211 124.546 81.0174 124.461 80.8154 124.408C80.6134 124.697 80.4782 125.068 80.4109 125.49C80.4092 125.516 80.4054 125.541 80.3995 125.567C80.2871 126.382 80.4212 127.378 80.81 128.352C81.2023 129.336 81.8077 130.18 82.4759 130.735C82.4915 130.746 82.5065 130.758 82.521 130.772C82.883 131.064 83.2624 131.272 83.6355 131.37C84.2343 130.512 84.2462 128.943 83.6409 127.426ZM86.8504 128.352C87.2391 127.378 87.3732 126.383 87.2611 125.568C87.255 125.542 87.2511 125.515 87.2493 125.489C87.182 125.067 87.0468 124.697 86.845 124.408C86.646 124.46 86.4451 124.543 86.2455 124.654C86.2192 124.673 86.1905 124.69 86.1598 124.703C85.4971 125.098 84.8576 125.794 84.3761 126.67C84.4357 126.798 84.4923 126.929 84.5455 127.063C85.0979 128.447 85.202 129.862 84.8822 130.963C84.9691 130.904 85.0555 130.84 85.1408 130.771C85.1543 130.758 85.1684 130.747 85.1829 130.736C85.8518 130.181 86.4578 129.336 86.8504 128.352ZM92.3671 130.51C91.8992 129.849 90.9047 129.358 89.7181 129.211C89.6843 129.241 89.6498 129.27 89.615 129.3C88.7851 129.998 87.7781 130.395 86.8128 130.412C86.6249 130.664 86.4246 130.898 86.2147 131.109C86.9121 131.577 87.9187 131.855 88.971 131.855C90.4533 131.855 91.7983 131.312 92.3671 130.51ZM88.5529 134.123C88.35 133.946 88.0423 133.968 87.8655 134.171C87.5583 134.525 86.1032 135.023 83.8303 135.023C81.5572 135.023 80.1021 134.525 79.7949 134.171C79.6182 133.968 79.3105 133.946 79.1076 134.123C78.9047 134.301 78.8835 134.609 79.0602 134.813C79.8213 135.689 82.1055 136 83.8303 136C85.5551 136 87.8392 135.689 88.6003 134.813C88.777 134.609 88.7557 134.301 88.5529 134.123ZM77.4261 123.785C77.6849 123.859 77.9541 123.707 78.0271 123.448C78.7553 120.855 81.1417 119.045 83.8303 119.045C86.5188 119.045 88.9052 120.855 89.6334 123.448C89.694 123.663 89.8894 123.804 90.1021 123.804C90.1458 123.804 90.1903 123.798 90.2344 123.785C90.4934 123.712 90.6442 123.442 90.5712 123.183C89.7252 120.171 86.9532 118.068 83.8303 118.068C80.7073 118.068 77.9353 120.171 77.0893 123.183C77.0163 123.442 77.1671 123.712 77.4261 123.785ZM83.8303 134.358C84.2488 134.358 85.6532 134.313 86.1531 133.737C86.3297 133.534 86.3084 133.225 86.1055 133.048C85.9037 132.872 85.598 132.892 85.421 133.092C85.3099 133.194 84.7332 133.381 83.8303 133.381C82.9271 133.381 82.3504 133.194 82.2393 133.092C82.0622 132.892 81.7567 132.872 81.5548 133.048C81.3519 133.225 81.3307 133.534 81.5074 133.737C82.0074 134.313 83.4118 134.358 83.8303 134.358ZM75.0569 121.851L75.3136 121.999C75.3903 122.044 75.4741 122.065 75.5569 122.065C75.7252 122.065 75.8888 121.977 75.9791 121.821C76.1138 121.587 76.034 121.288 75.8011 121.153L75.5444 121.004C75.3116 120.87 75.0135 120.949 74.8789 121.183C74.7443 121.417 74.824 121.716 75.0569 121.851Z" fill="#A0A3A4"/>
</g>
<defs>
<filter id="filter0_d_1_558" x="-45.7616" y="0" width="259.184" height="260" filterUnits="userSpaceOnUse" color-interpolation-filters="sRGB">
<feFlood flood-opacity="0" result="BackgroundImageFix"/>
<feColorMatrix in="SourceAlpha" type="matrix" values="0 0 0 0 0 0 0 0 0 0 0 0 0 0 0 0 0 0 127 0" result="hardAlpha"/>
<feOffset dy="4"/>
<feGaussianBlur stdDeviation="60"/>
<feColorMatrix type="matrix" values="0 0 0 0 1 0 0 0 0 1 0 0 0 0 1 0 0 0 1 0"/>
<feBlend mode="normal" in2="BackgroundImageFix" result="effect1_dropShadow_1_558"/>
<feBlend mode="normal" in="SourceGraphic" in2="effect1_dropShadow_1_558" result="shape"/>
</filter>
</defs>
</svg>
