<svg width="19" height="17" viewBox="0 0 19 17" fill="none" xmlns="http://www.w3.org/2000/svg">
<path d="M13.5806 15.3535C13.5806 14.9195 13.5806 0.881627 13.5806 0.531863C13.5806 0.238125 13.3425 -1.52588e-05 13.0488 -1.52588e-05H0.531879C0.23814 -1.52588e-05 0 0.238125 0 0.531863V14.2898C0 15.7562 1.193 16.9492 2.65939 16.9492H14.114C13.7793 16.5044 13.5806 15.9517 13.5806 15.3535ZM2.83669 10.2121H4.5387C4.83244 10.2121 5.07058 10.4502 5.07058 10.7439C5.07058 11.0377 4.83244 11.2758 4.5387 11.2758H2.83669C2.54295 11.2758 2.30481 11.0377 2.30481 10.7439C2.30481 10.4502 2.54295 10.2121 2.83669 10.2121ZM2.30481 8.47458C2.30481 8.18084 2.54295 7.94271 2.83669 7.94271H4.5387C4.83244 7.94271 5.07058 8.18084 5.07058 8.47458C5.07058 8.76832 4.83244 9.00646 4.5387 9.00646H2.83669C2.54295 9.00646 2.30481 8.76832 2.30481 8.47458ZM10.7794 14.3962H2.83669C2.54295 14.3962 2.30481 14.158 2.30481 13.8643C2.30481 13.5705 2.54295 13.3324 2.83669 13.3324H10.7794C11.0731 13.3324 11.3113 13.5705 11.3113 13.8643C11.3113 14.158 11.0731 14.3962 10.7794 14.3962ZM11.3113 11.5949C11.3113 11.8887 11.0731 12.1268 10.7794 12.1268H6.80805C6.51431 12.1268 6.27617 11.8887 6.27617 11.5949V7.62358C6.27617 7.32984 6.51431 7.0917 6.80805 7.0917H10.7794C11.0731 7.0917 11.3113 7.32984 11.3113 7.62358V11.5949ZM10.7794 5.88611H2.83669C2.54295 5.88611 2.30481 5.64797 2.30481 5.35423C2.30481 5.06049 2.54295 4.82235 2.83669 4.82235H10.7794C11.0731 4.82235 11.3113 5.06049 11.3113 5.35423C11.3113 5.64797 11.0731 5.88611 10.7794 5.88611ZM10.7794 3.61676H2.83669C2.54295 3.61676 2.30481 3.37862 2.30481 3.08488C2.30481 2.79114 2.54295 2.553 2.83669 2.553H10.7794C11.0731 2.553 11.3113 2.79114 11.3113 3.08488C11.3113 3.37862 11.0731 3.61676 10.7794 3.61676Z" fill="white"/>
<path d="M7.33997 8.15545H10.2476V11.0631H7.33997V8.15545Z" fill="white"/>
<path d="M17.6229 3.68767H14.6444C14.6444 15.7398 14.6426 15.3539 14.6475 15.3539C14.6934 16.0964 15.2009 16.7136 15.8865 16.9228C16.9831 17.2574 18.1074 16.4641 18.153 15.3147C18.1557 15.3147 18.1547 15.5804 18.1547 4.21955C18.1547 3.92581 17.9166 3.68767 17.6229 3.68767Z" fill="white"/>
</svg>
