<svg width="272" height="235" viewBox="0 0 272 235" fill="none" xmlns="http://www.w3.org/2000/svg">
<path opacity="0.5" d="M2.82 34.6C3.16 34.6 3.48333 34.6733 3.79 34.82C4.09667 34.9667 4.36 35.1767 4.58 35.45C5.06 36.0367 5.3 36.8 5.3 37.74C5.3 39.3733 4.84667 40.42 3.94 40.88C3.62667 41.0333 3.28667 41.11 2.92 41.11C2.23333 41.11 1.69 40.9233 1.29 40.55C0.89 40.1767 0.69 39.7067 0.69 39.14H1.52C1.53333 39.52 1.65333 39.8233 1.88 40.05C2.10667 40.2767 2.39333 40.39 2.74 40.39C3.08667 40.39 3.36667 40.3267 3.58 40.2C4.18667 39.82 4.49 38.9633 4.49 37.63C4.49 37.3567 4.47333 37.11 4.44 36.89C4.37333 37.43 4.17667 37.8333 3.85 38.1C3.53 38.3667 3.10667 38.5 2.58 38.5C2.06 38.5 1.61 38.3167 1.23 37.95C0.85 37.5767 0.66 37.1033 0.66 36.53C0.66 35.95 0.856667 35.4833 1.25 35.13C1.64333 34.7767 2.16667 34.6 2.82 34.6ZM3.73 35.67C3.48333 35.4433 3.17 35.33 2.79 35.33C2.41 35.33 2.09667 35.44 1.85 35.66C1.60333 35.88 1.48 36.1833 1.48 36.57C1.48 36.9567 1.60333 37.26 1.85 37.48C2.10333 37.7 2.41667 37.81 2.79 37.81C3.17 37.81 3.48333 37.6933 3.73 37.46C3.98333 37.22 4.11 36.9167 4.11 36.55C4.11 36.1833 3.98333 35.89 3.73 35.67ZM8.63055 34.6C8.97055 34.6 9.29388 34.6733 9.60055 34.82C9.90721 34.9667 10.1705 35.1767 10.3905 35.45C10.8705 36.0367 11.1105 36.8 11.1105 37.74C11.1105 39.3733 10.6572 40.42 9.75055 40.88C9.43721 41.0333 9.09721 41.11 8.73055 41.11C8.04388 41.11 7.50055 40.9233 7.10055 40.55C6.70055 40.1767 6.50055 39.7067 6.50055 39.14H7.33055C7.34388 39.52 7.46388 39.8233 7.69055 40.05C7.91721 40.2767 8.20388 40.39 8.55055 40.39C8.89721 40.39 9.17721 40.3267 9.39055 40.2C9.99721 39.82 10.3005 38.9633 10.3005 37.63C10.3005 37.3567 10.2839 37.11 10.2505 36.89C10.1839 37.43 9.98721 37.8333 9.66055 38.1C9.34055 38.3667 8.91721 38.5 8.39055 38.5C7.87055 38.5 7.42055 38.3167 7.04055 37.95C6.66055 37.5767 6.47055 37.1033 6.47055 36.53C6.47055 35.95 6.66721 35.4833 7.06055 35.13C7.45388 34.7767 7.97721 34.6 8.63055 34.6ZM9.54055 35.67C9.29388 35.4433 8.98055 35.33 8.60055 35.33C8.22055 35.33 7.90721 35.44 7.66055 35.66C7.41388 35.88 7.29055 36.1833 7.29055 36.57C7.29055 36.9567 7.41388 37.26 7.66055 37.48C7.91388 37.7 8.22721 37.81 8.60055 37.81C8.98055 37.81 9.29388 37.6933 9.54055 37.46C9.79388 37.22 9.92055 36.9167 9.92055 36.55C9.92055 36.1833 9.79388 35.89 9.54055 35.67ZM14.4411 34.6C14.7811 34.6 15.1044 34.6733 15.4111 34.82C15.7178 34.9667 15.9811 35.1767 16.2011 35.45C16.6811 36.0367 16.9211 36.8 16.9211 37.74C16.9211 39.3733 16.4678 40.42 15.5611 40.88C15.2478 41.0333 14.9078 41.11 14.5411 41.11C13.8544 41.11 13.3111 40.9233 12.9111 40.55C12.5111 40.1767 12.3111 39.7067 12.3111 39.14H13.1411C13.1544 39.52 13.2744 39.8233 13.5011 40.05C13.7278 40.2767 14.0144 40.39 14.3611 40.39C14.7078 40.39 14.9878 40.3267 15.2011 40.2C15.8078 39.82 16.1111 38.9633 16.1111 37.63C16.1111 37.3567 16.0944 37.11 16.0611 36.89C15.9944 37.43 15.7978 37.8333 15.4711 38.1C15.1511 38.3667 14.7278 38.5 14.2011 38.5C13.6811 38.5 13.2311 38.3167 12.8511 37.95C12.4711 37.5767 12.2811 37.1033 12.2811 36.53C12.2811 35.95 12.4778 35.4833 12.8711 35.13C13.2644 34.7767 13.7878 34.6 14.4411 34.6ZM15.3511 35.67C15.1044 35.4433 14.7911 35.33 14.4111 35.33C14.0311 35.33 13.7178 35.44 13.4711 35.66C13.2244 35.88 13.1011 36.1833 13.1011 36.57C13.1011 36.9567 13.2244 37.26 13.4711 37.48C13.7244 37.7 14.0378 37.81 14.4111 37.81C14.7911 37.81 15.1044 37.6933 15.3511 37.46C15.6044 37.22 15.7311 36.9167 15.7311 36.55C15.7311 36.1833 15.6044 35.89 15.3511 35.67Z" fill="#818586"/>
<path opacity="0.5" d="M16.98 204.6C17.74 204.6 18.34 204.88 18.78 205.44C19.22 206 19.44 206.807 19.44 207.86C19.44 208.907 19.22 209.71 18.78 210.27C18.34 210.83 17.74 211.11 16.98 211.11C16.22 211.11 15.6167 210.833 15.17 210.28C14.73 209.727 14.51 208.92 14.51 207.86C14.51 206.793 14.73 205.983 15.17 205.43C15.6167 204.877 16.22 204.6 16.98 204.6ZM18.62 207.86C18.62 207.04 18.48 206.413 18.2 205.98C17.92 205.54 17.51 205.32 16.97 205.32C16.4367 205.32 16.03 205.54 15.75 205.98C15.47 206.413 15.33 207.04 15.33 207.86C15.33 208.673 15.47 209.3 15.75 209.74C16.03 210.173 16.4367 210.39 16.97 210.39C17.51 210.39 17.92 210.173 18.2 209.74C18.48 209.3 18.62 208.673 18.62 207.86Z" fill="#818586"/>
<path opacity="0.5" d="M3.49 171.2C3.93667 171.14 4.32667 170.97 4.66 170.69H5.3V177H4.52V171.63C4.18667 171.843 3.84333 171.96 3.49 171.98V171.2ZM9.13055 170.6C9.47055 170.6 9.79388 170.673 10.1005 170.82C10.4072 170.967 10.6705 171.177 10.8905 171.45C11.3705 172.037 11.6105 172.8 11.6105 173.74C11.6105 175.373 11.1572 176.42 10.2505 176.88C9.93721 177.033 9.59721 177.11 9.23055 177.11C8.54388 177.11 8.00055 176.923 7.60055 176.55C7.20055 176.177 7.00055 175.707 7.00055 175.14H7.83055C7.84388 175.52 7.96388 175.823 8.19055 176.05C8.41721 176.277 8.70388 176.39 9.05055 176.39C9.39721 176.39 9.67721 176.327 9.89055 176.2C10.4972 175.82 10.8005 174.963 10.8005 173.63C10.8005 173.357 10.7839 173.11 10.7505 172.89C10.6839 173.43 10.4872 173.833 10.1605 174.1C9.84055 174.367 9.41721 174.5 8.89055 174.5C8.37055 174.5 7.92055 174.317 7.54055 173.95C7.16055 173.577 6.97055 173.103 6.97055 172.53C6.97055 171.95 7.16721 171.483 7.56055 171.13C7.95388 170.777 8.47721 170.6 9.13055 170.6ZM10.0405 171.67C9.79388 171.443 9.48055 171.33 9.10055 171.33C8.72055 171.33 8.40721 171.44 8.16055 171.66C7.91388 171.88 7.79055 172.183 7.79055 172.57C7.79055 172.957 7.91388 173.26 8.16055 173.48C8.41388 173.7 8.72721 173.81 9.10055 173.81C9.48055 173.81 9.79388 173.693 10.0405 173.46C10.2939 173.22 10.4205 172.917 10.4205 172.55C10.4205 172.183 10.2939 171.89 10.0405 171.67ZM14.9411 170.6C15.2811 170.6 15.6044 170.673 15.9111 170.82C16.2178 170.967 16.4811 171.177 16.7011 171.45C17.1811 172.037 17.4211 172.8 17.4211 173.74C17.4211 175.373 16.9678 176.42 16.0611 176.88C15.7478 177.033 15.4078 177.11 15.0411 177.11C14.3544 177.11 13.8111 176.923 13.4111 176.55C13.0111 176.177 12.8111 175.707 12.8111 175.14H13.6411C13.6544 175.52 13.7744 175.823 14.0011 176.05C14.2278 176.277 14.5144 176.39 14.8611 176.39C15.2078 176.39 15.4878 176.327 15.7011 176.2C16.3078 175.82 16.6111 174.963 16.6111 173.63C16.6111 173.357 16.5944 173.11 16.5611 172.89C16.4944 173.43 16.2978 173.833 15.9711 174.1C15.6511 174.367 15.2278 174.5 14.7011 174.5C14.1811 174.5 13.7311 174.317 13.3511 173.95C12.9711 173.577 12.7811 173.103 12.7811 172.53C12.7811 171.95 12.9778 171.483 13.3711 171.13C13.7644 170.777 14.2878 170.6 14.9411 170.6ZM15.8511 171.67C15.6044 171.443 15.2911 171.33 14.9111 171.33C14.5311 171.33 14.2178 171.44 13.9711 171.66C13.7244 171.88 13.6011 172.183 13.6011 172.57C13.6011 172.957 13.7244 173.26 13.9711 173.48C14.2244 173.7 14.5378 173.81 14.9111 173.81C15.2911 173.81 15.6044 173.693 15.8511 173.46C16.1044 173.22 16.2311 172.917 16.2311 172.55C16.2311 172.183 16.1044 171.89 15.8511 171.67Z" fill="#818586"/>
<path opacity="0.5" d="M5.05 138.32C5.05 138.987 4.68333 139.45 3.95 139.71C4.35 139.823 4.67333 140.01 4.92 140.27C5.16667 140.53 5.29 140.863 5.29 141.27C5.29 141.823 5.08 142.27 4.66 142.61C4.24 142.943 3.68667 143.11 3 143.11C2.31333 143.11 1.72667 142.933 1.24 142.58C0.76 142.22 0.52 141.717 0.52 141.07H1.34C1.35333 141.497 1.51 141.823 1.81 142.05C2.11667 142.277 2.50333 142.39 2.97 142.39C3.43667 142.39 3.79667 142.28 4.05 142.06C4.31 141.833 4.44 141.557 4.44 141.23C4.44 140.897 4.31667 140.627 4.07 140.42C3.82333 140.207 3.42333 140.1 2.87 140.1H2.15V139.47H2.64C3.12 139.47 3.5 139.377 3.78 139.19C4.06 138.997 4.2 138.74 4.2 138.42C4.2 138.1 4.08667 137.837 3.86 137.63C3.63333 137.423 3.33333 137.32 2.96 137.32C2.58667 137.32 2.27333 137.387 2.02 137.52C1.77333 137.647 1.60667 137.887 1.52 138.24H0.7C0.773333 137.687 1.00333 137.277 1.39 137.01C1.77667 136.737 2.27333 136.6 2.88 136.6C3.49333 136.6 4.00667 136.763 4.42 137.09C4.84 137.41 5.05 137.82 5.05 138.32ZM8.7282 136.6C9.0682 136.6 9.39154 136.673 9.6982 136.82C10.0049 136.967 10.2682 137.177 10.4882 137.45C10.9682 138.037 11.2082 138.8 11.2082 139.74C11.2082 141.373 10.7549 142.42 9.8482 142.88C9.53487 143.033 9.19487 143.11 8.8282 143.11C8.14154 143.11 7.5982 142.923 7.1982 142.55C6.7982 142.177 6.5982 141.707 6.5982 141.14H7.4282C7.44154 141.52 7.56154 141.823 7.7882 142.05C8.01487 142.277 8.30154 142.39 8.6482 142.39C8.99487 142.39 9.27487 142.327 9.4882 142.2C10.0949 141.82 10.3982 140.963 10.3982 139.63C10.3982 139.357 10.3815 139.11 10.3482 138.89C10.2815 139.43 10.0849 139.833 9.7582 140.1C9.4382 140.367 9.01487 140.5 8.4882 140.5C7.9682 140.5 7.5182 140.317 7.1382 139.95C6.7582 139.577 6.5682 139.103 6.5682 138.53C6.5682 137.95 6.76487 137.483 7.1582 137.13C7.55154 136.777 8.07487 136.6 8.7282 136.6ZM9.6382 137.67C9.39154 137.443 9.0782 137.33 8.6982 137.33C8.3182 137.33 8.00487 137.44 7.7582 137.66C7.51154 137.88 7.3882 138.183 7.3882 138.57C7.3882 138.957 7.51154 139.26 7.7582 139.48C8.01154 139.7 8.32487 139.81 8.6982 139.81C9.0782 139.81 9.39154 139.693 9.6382 139.46C9.89154 139.22 10.0182 138.917 10.0182 138.55C10.0182 138.183 9.89154 137.89 9.6382 137.67ZM14.5388 136.6C14.8788 136.6 15.2021 136.673 15.5088 136.82C15.8154 136.967 16.0788 137.177 16.2988 137.45C16.7788 138.037 17.0188 138.8 17.0188 139.74C17.0188 141.373 16.5654 142.42 15.6588 142.88C15.3454 143.033 15.0054 143.11 14.6388 143.11C13.9521 143.11 13.4088 142.923 13.0088 142.55C12.6088 142.177 12.4088 141.707 12.4088 141.14H13.2388C13.2521 141.52 13.3721 141.823 13.5988 142.05C13.8254 142.277 14.1121 142.39 14.4588 142.39C14.8054 142.39 15.0854 142.327 15.2988 142.2C15.9054 141.82 16.2088 140.963 16.2088 139.63C16.2088 139.357 16.1921 139.11 16.1588 138.89C16.0921 139.43 15.8954 139.833 15.5688 140.1C15.2488 140.367 14.8254 140.5 14.2988 140.5C13.7788 140.5 13.3288 140.317 12.9488 139.95C12.5688 139.577 12.3787 139.103 12.3787 138.53C12.3787 137.95 12.5754 137.483 12.9688 137.13C13.3621 136.777 13.8854 136.6 14.5388 136.6ZM15.4488 137.67C15.2021 137.443 14.8888 137.33 14.5088 137.33C14.1288 137.33 13.8154 137.44 13.5688 137.66C13.3221 137.88 13.1988 138.183 13.1988 138.57C13.1988 138.957 13.3221 139.26 13.5688 139.48C13.8221 139.7 14.1354 139.81 14.5088 139.81C14.8888 139.81 15.2021 139.693 15.4488 139.46C15.7021 139.22 15.8288 138.917 15.8288 138.55C15.8288 138.183 15.7021 137.89 15.4488 137.67Z" fill="#818586"/>
<path opacity="0.5" d="M4.27 106.96C4.27 106.167 3.75333 105.77 2.72 105.77H1.03L1.3 102.71H4.79V103.43H2.06L1.89 105.24C2.23667 105.18 2.56667 105.15 2.88 105.15C3.56667 105.15 4.10667 105.303 4.5 105.61C4.89333 105.91 5.09 106.367 5.09 106.98C5.09 107.593 4.88333 108.103 4.47 108.51C4.05667 108.91 3.52333 109.11 2.87 109.11C2.21667 109.11 1.68333 108.947 1.27 108.62C0.856667 108.287 0.65 107.83 0.65 107.25H1.44C1.44 107.797 1.72 108.153 2.28 108.32C2.45333 108.367 2.64333 108.39 2.85 108.39C3.27667 108.39 3.62 108.257 3.88 107.99C4.14 107.717 4.27 107.373 4.27 106.96ZM8.4743 102.6C8.8143 102.6 9.13763 102.673 9.4443 102.82C9.75096 102.967 10.0143 103.177 10.2343 103.45C10.7143 104.037 10.9543 104.8 10.9543 105.74C10.9543 107.373 10.501 108.42 9.5943 108.88C9.28096 109.033 8.94096 109.11 8.5743 109.11C7.88763 109.11 7.3443 108.923 6.9443 108.55C6.5443 108.177 6.3443 107.707 6.3443 107.14H7.1743C7.18763 107.52 7.30763 107.823 7.5343 108.05C7.76096 108.277 8.04763 108.39 8.3943 108.39C8.74096 108.39 9.02096 108.327 9.2343 108.2C9.84096 107.82 10.1443 106.963 10.1443 105.63C10.1443 105.357 10.1276 105.11 10.0943 104.89C10.0276 105.43 9.83096 105.833 9.5043 106.1C9.1843 106.367 8.76096 106.5 8.2343 106.5C7.7143 106.5 7.2643 106.317 6.8843 105.95C6.5043 105.577 6.3143 105.103 6.3143 104.53C6.3143 103.95 6.51096 103.483 6.9043 103.13C7.29763 102.777 7.82096 102.6 8.4743 102.6ZM9.3843 103.67C9.13763 103.443 8.8243 103.33 8.4443 103.33C8.0643 103.33 7.75096 103.44 7.5043 103.66C7.25763 103.88 7.1343 104.183 7.1343 104.57C7.1343 104.957 7.25763 105.26 7.5043 105.48C7.75763 105.7 8.07096 105.81 8.4443 105.81C8.8243 105.81 9.13763 105.693 9.3843 105.46C9.63763 105.22 9.7643 104.917 9.7643 104.55C9.7643 104.183 9.63763 103.89 9.3843 103.67ZM14.2848 102.6C14.6248 102.6 14.9482 102.673 15.2548 102.82C15.5615 102.967 15.8248 103.177 16.0448 103.45C16.5248 104.037 16.7648 104.8 16.7648 105.74C16.7648 107.373 16.3115 108.42 15.4048 108.88C15.0915 109.033 14.7515 109.11 14.3848 109.11C13.6982 109.11 13.1548 108.923 12.7548 108.55C12.3548 108.177 12.1548 107.707 12.1548 107.14H12.9848C12.9982 107.52 13.1182 107.823 13.3448 108.05C13.5715 108.277 13.8582 108.39 14.2048 108.39C14.5515 108.39 14.8315 108.327 15.0448 108.2C15.6515 107.82 15.9548 106.963 15.9548 105.63C15.9548 105.357 15.9382 105.11 15.9048 104.89C15.8382 105.43 15.6415 105.833 15.3148 106.1C14.9948 106.367 14.5715 106.5 14.0448 106.5C13.5248 106.5 13.0748 106.317 12.6948 105.95C12.3148 105.577 12.1248 105.103 12.1248 104.53C12.1248 103.95 12.3215 103.483 12.7148 103.13C13.1082 102.777 13.6315 102.6 14.2848 102.6ZM15.1948 103.67C14.9482 103.443 14.6348 103.33 14.2548 103.33C13.8748 103.33 13.5615 103.44 13.3148 103.66C13.0682 103.88 12.9448 104.183 12.9448 104.57C12.9448 104.957 13.0682 105.26 13.3148 105.48C13.5682 105.7 13.8815 105.81 14.2548 105.81C14.6348 105.81 14.9482 105.693 15.1948 105.46C15.4482 105.22 15.5748 104.917 15.5748 104.55C15.5748 104.183 15.4482 103.89 15.1948 103.67Z" fill="#818586"/>
<path opacity="0.5" d="M5.52 68.71V69.44L2.64 75H1.58L4.6 69.47H1.24V68.71H5.52ZM8.51727 68.6C8.85727 68.6 9.1806 68.6733 9.48727 68.82C9.79393 68.9667 10.0573 69.1767 10.2773 69.45C10.7573 70.0367 10.9973 70.8 10.9973 71.74C10.9973 73.3733 10.5439 74.42 9.63727 74.88C9.32393 75.0333 8.98393 75.11 8.61727 75.11C7.9306 75.11 7.38727 74.9233 6.98727 74.55C6.58727 74.1767 6.38727 73.7067 6.38727 73.14H7.21727C7.2306 73.52 7.3506 73.8233 7.57727 74.05C7.80393 74.2767 8.0906 74.39 8.43727 74.39C8.78393 74.39 9.06393 74.3267 9.27727 74.2C9.88393 73.82 10.1873 72.9633 10.1873 71.63C10.1873 71.3567 10.1706 71.11 10.1373 70.89C10.0706 71.43 9.87393 71.8333 9.54727 72.1C9.22727 72.3667 8.80393 72.5 8.27727 72.5C7.75727 72.5 7.30727 72.3167 6.92727 71.95C6.54727 71.5767 6.35727 71.1033 6.35727 70.53C6.35727 69.95 6.55393 69.4833 6.94727 69.13C7.3406 68.7767 7.86393 68.6 8.51727 68.6ZM9.42727 69.67C9.1806 69.4433 8.86727 69.33 8.48727 69.33C8.10727 69.33 7.79393 69.44 7.54727 69.66C7.3006 69.88 7.17727 70.1833 7.17727 70.57C7.17727 70.9567 7.3006 71.26 7.54727 71.48C7.8006 71.7 8.11393 71.81 8.48727 71.81C8.86727 71.81 9.1806 71.6933 9.42727 71.46C9.6806 71.22 9.80727 70.9167 9.80727 70.55C9.80727 70.1833 9.6806 69.89 9.42727 69.67ZM14.3278 68.6C14.6678 68.6 14.9911 68.6733 15.2978 68.82C15.6045 68.9667 15.8678 69.1767 16.0878 69.45C16.5678 70.0367 16.8078 70.8 16.8078 71.74C16.8078 73.3733 16.3545 74.42 15.4478 74.88C15.1345 75.0333 14.7945 75.11 14.4278 75.11C13.7411 75.11 13.1978 74.9233 12.7978 74.55C12.3978 74.1767 12.1978 73.7067 12.1978 73.14H13.0278C13.0411 73.52 13.1611 73.8233 13.3878 74.05C13.6145 74.2767 13.9011 74.39 14.2478 74.39C14.5945 74.39 14.8745 74.3267 15.0878 74.2C15.6945 73.82 15.9978 72.9633 15.9978 71.63C15.9978 71.3567 15.9811 71.11 15.9478 70.89C15.8811 71.43 15.6845 71.8333 15.3578 72.1C15.0378 72.3667 14.6145 72.5 14.0878 72.5C13.5678 72.5 13.1178 72.3167 12.7378 71.95C12.3578 71.5767 12.1678 71.1033 12.1678 70.53C12.1678 69.95 12.3645 69.4833 12.7578 69.13C13.1511 68.7767 13.6745 68.6 14.3278 68.6ZM15.2378 69.67C14.9911 69.4433 14.6778 69.33 14.2978 69.33C13.9178 69.33 13.6045 69.44 13.3578 69.66C13.1111 69.88 12.9878 70.1833 12.9878 70.57C12.9878 70.9567 13.1111 71.26 13.3578 71.48C13.6111 71.7 13.9245 71.81 14.2978 71.81C14.6778 71.81 14.9911 71.6933 15.2378 71.46C15.4911 71.22 15.6178 70.9167 15.6178 70.55C15.6178 70.1833 15.4911 69.89 15.2378 69.67Z" fill="#818586"/>
<path opacity="0.5" d="M34.14 226.71L36.26 230.97L38.36 226.71H39.47V233H38.68V227.83L36.52 232.21H35.99L33.8 227.76V233H33.01V226.71H34.14ZM43.2066 228.1C43.8732 228.1 44.4099 228.317 44.8166 228.75C45.2299 229.183 45.4366 229.803 45.4366 230.61C45.4366 231.41 45.2299 232.027 44.8166 232.46C44.4099 232.893 43.8732 233.11 43.2066 233.11C42.5399 233.11 41.9999 232.893 41.5866 232.46C41.1799 232.027 40.9766 231.41 40.9766 230.61C40.9766 229.803 41.1799 229.183 41.5866 228.75C41.9999 228.317 42.5399 228.1 43.2066 228.1ZM44.6366 230.61C44.6366 230.037 44.5166 229.59 44.2766 229.27C44.0366 228.943 43.6832 228.78 43.2166 228.78C42.7566 228.78 42.4032 228.943 42.1566 229.27C41.9099 229.59 41.7866 230.037 41.7866 230.61C41.7866 231.177 41.9032 231.623 42.1366 231.95C42.3699 232.27 42.7166 232.43 43.1766 232.43C43.6432 232.43 44.0032 232.27 44.2566 231.95C44.5099 231.623 44.6366 231.177 44.6366 230.61ZM47.7055 229.14C48.0189 228.447 48.5555 228.1 49.3155 228.1C49.8822 228.1 50.3222 228.287 50.6355 228.66C50.9555 229.033 51.1155 229.543 51.1155 230.19V233H50.3355V230.19C50.3355 229.73 50.2255 229.383 50.0055 229.15C49.7922 228.917 49.4855 228.8 49.0855 228.8C48.6855 228.8 48.3622 228.963 48.1155 229.29C47.8689 229.617 47.7389 230.07 47.7255 230.65V233H46.9355V228.22H47.6155L47.7055 229.14Z" fill="#818586"/>
<path opacity="0.5" d="M72.06 226.71H76.95V227.39H74.9V233H74.11V227.39H72.06V226.71ZM80.5764 232.05C80.2497 232.743 79.7197 233.09 78.9864 233.09C78.4464 233.09 78.0097 232.94 77.6764 232.64C77.3497 232.34 77.1864 231.877 77.1864 231.25V228.21H77.9764V231.19C77.9764 231.997 78.3497 232.4 79.0964 232.4C79.5297 232.4 79.8797 232.233 80.1464 231.9C80.4197 231.567 80.5631 231.14 80.5764 230.62V228.21H81.3664V233H80.5764V232.05ZM85.0409 232.47C85.7009 232.47 86.0775 232.18 86.1709 231.6H86.9809C86.9075 232.08 86.6942 232.453 86.3409 232.72C85.9942 232.98 85.5609 233.11 85.0409 233.11C84.4009 233.11 83.8809 232.883 83.4809 232.43C83.0809 231.97 82.8809 231.36 82.8809 230.6C82.8809 229.84 83.0809 229.233 83.4809 228.78C83.8875 228.327 84.4242 228.1 85.0909 228.1C85.7642 228.1 86.2642 228.36 86.5909 228.88C86.9242 229.4 87.0409 230.033 86.9409 230.78H83.6709C83.6709 231.273 83.7909 231.68 84.0309 232C84.2709 232.313 84.6075 232.47 85.0409 232.47ZM85.6209 228.85C85.4675 228.77 85.2809 228.73 85.0609 228.73C84.6542 228.73 84.3309 228.87 84.0909 229.15C83.8575 229.423 83.7209 229.767 83.6809 230.18H86.2309C86.2309 229.513 86.0275 229.07 85.6209 228.85Z" fill="#818586"/>
<path opacity="0.5" d="M110.02 226.71L111.55 231.94L113.1 227.36H113.63L115.17 231.94L116.93 226.71H117.8L115.58 233H114.75L113.38 228.97L111.96 233H111.13L109.14 226.71H110.02ZM120.273 232.47C120.933 232.47 121.31 232.18 121.403 231.6H122.213C122.14 232.08 121.927 232.453 121.573 232.72C121.227 232.98 120.793 233.11 120.273 233.11C119.633 233.11 119.113 232.883 118.713 232.43C118.313 231.97 118.113 231.36 118.113 230.6C118.113 229.84 118.313 229.233 118.713 228.78C119.12 228.327 119.657 228.1 120.323 228.1C120.997 228.1 121.497 228.36 121.823 228.88C122.157 229.4 122.273 230.033 122.173 230.78H118.903C118.903 231.273 119.023 231.68 119.263 232C119.503 232.313 119.84 232.47 120.273 232.47ZM120.853 228.85C120.7 228.77 120.513 228.73 120.293 228.73C119.887 228.73 119.563 228.87 119.323 229.15C119.09 229.423 118.953 229.767 118.913 230.18H121.463C121.463 229.513 121.26 229.07 120.853 228.85ZM126.9 228.93V226.19H127.68V233H127.04L126.94 232.2C126.786 232.5 126.583 232.727 126.33 232.88C126.076 233.033 125.8 233.11 125.5 233.11C124.893 233.11 124.383 232.877 123.97 232.41C123.563 231.943 123.36 231.337 123.36 230.59C123.36 229.837 123.56 229.233 123.96 228.78C124.366 228.327 124.876 228.1 125.49 228.1C126.11 228.1 126.58 228.377 126.9 228.93ZM125.54 228.8C125.153 228.8 124.826 228.963 124.56 229.29C124.3 229.617 124.17 230.053 124.17 230.6C124.17 231.147 124.303 231.587 124.57 231.92C124.836 232.247 125.156 232.41 125.53 232.41C125.903 232.41 126.22 232.287 126.48 232.04C126.746 231.787 126.886 231.45 126.9 231.03V230.25C126.9 229.803 126.77 229.45 126.51 229.19C126.25 228.93 125.926 228.8 125.54 228.8Z" fill="#818586"/>
<path opacity="0.5" d="M149.06 226.71H153.95V227.39H151.9V233H151.11V227.39H149.06V226.71ZM155.81 229.1C156.13 228.433 156.66 228.1 157.4 228.1C157.966 228.1 158.406 228.287 158.72 228.66C159.04 229.033 159.2 229.543 159.2 230.19V233H158.42V230.19C158.42 229.73 158.31 229.383 158.09 229.15C157.876 228.917 157.566 228.8 157.16 228.8C156.753 228.8 156.426 228.973 156.18 229.32C155.933 229.66 155.81 230.133 155.81 230.74V233H155.02V226.19H155.81V229.1ZM164.305 232.05C163.978 232.743 163.448 233.09 162.715 233.09C162.175 233.09 161.738 232.94 161.405 232.64C161.078 232.34 160.915 231.877 160.915 231.25V228.21H161.705V231.19C161.705 231.997 162.078 232.4 162.825 232.4C163.258 232.4 163.608 232.233 163.875 231.9C164.148 231.567 164.292 231.14 164.305 230.62V228.21H165.095V233H164.305V232.05Z" fill="#818586"/>
<path opacity="0.5" d="M187.01 226.71H190.83V227.39H187.8V229.48H190.62V230.16H187.8V233H187.01V226.71ZM194.204 228.89C193.451 228.89 193.061 229.483 193.034 230.67V233H192.244V228.21H193.034V229.13C193.274 228.463 193.697 228.13 194.304 228.13C194.497 228.13 194.681 228.16 194.854 228.22L194.814 228.99C194.614 228.923 194.411 228.89 194.204 228.89ZM196.113 228.21H196.903V233H196.113V228.21ZM196.503 227.09C196.343 227.09 196.216 227.047 196.123 226.96C196.036 226.867 195.993 226.747 195.993 226.6C195.993 226.447 196.036 226.327 196.123 226.24C196.216 226.147 196.343 226.1 196.503 226.1C196.663 226.1 196.789 226.147 196.883 226.24C196.983 226.327 197.033 226.447 197.033 226.6C197.033 226.747 196.983 226.867 196.883 226.96C196.789 227.047 196.663 227.09 196.503 227.09Z" fill="#818586"/>
<path opacity="0.5" d="M223.36 228.24C223.247 227.627 222.797 227.32 222.01 227.32C221.59 227.32 221.267 227.413 221.04 227.6C220.813 227.78 220.7 228 220.7 228.26C220.7 228.513 220.77 228.707 220.91 228.84C221.05 228.973 221.277 229.09 221.59 229.19L222.9 229.64C223.347 229.793 223.7 230.003 223.96 230.27C224.227 230.537 224.36 230.913 224.36 231.4C224.36 231.88 224.153 232.287 223.74 232.62C223.327 232.947 222.773 233.11 222.08 233.11C221.387 233.11 220.817 232.937 220.37 232.59C219.93 232.237 219.703 231.743 219.69 231.11H220.46C220.46 231.523 220.603 231.84 220.89 232.06C221.183 232.28 221.557 232.39 222.01 232.39C222.47 232.39 222.833 232.29 223.1 232.09C223.367 231.883 223.5 231.643 223.5 231.37C223.5 231.09 223.417 230.87 223.25 230.71C223.09 230.55 222.85 230.417 222.53 230.31L221.42 229.9C220.9 229.727 220.507 229.52 220.24 229.28C219.973 229.04 219.84 228.69 219.84 228.23C219.84 227.763 220.027 227.377 220.4 227.07C220.773 226.757 221.297 226.6 221.97 226.6C222.643 226.6 223.157 226.75 223.51 227.05C223.87 227.343 224.077 227.74 224.13 228.24H223.36ZM229.025 229.9C229.025 229.467 228.935 229.157 228.755 228.97C228.575 228.783 228.311 228.69 227.965 228.69C227.625 228.69 227.348 228.76 227.135 228.9C226.928 229.033 226.825 229.247 226.825 229.54H225.955C225.955 228.807 226.348 228.353 227.135 228.18C227.375 228.127 227.635 228.1 227.915 228.1C228.508 228.1 228.971 228.25 229.305 228.55C229.638 228.85 229.805 229.307 229.805 229.92V233H229.125L229.045 232.2C228.751 232.807 228.221 233.11 227.455 233.11C226.941 233.11 226.528 232.967 226.215 232.68C225.908 232.393 225.755 232.037 225.755 231.61C225.755 231.183 225.925 230.85 226.265 230.61C226.611 230.37 227.041 230.25 227.555 230.25C228.068 230.25 228.558 230.337 229.025 230.51V229.9ZM229.025 231.01C228.551 230.877 228.138 230.81 227.785 230.81C227.431 230.81 227.145 230.873 226.925 231C226.705 231.127 226.595 231.327 226.595 231.6C226.595 232.2 226.935 232.5 227.615 232.5C228.001 232.5 228.331 232.363 228.605 232.09C228.885 231.81 229.025 231.45 229.025 231.01ZM234.16 232.86C233.587 233.127 233.064 233.183 232.59 233.03C232.25 232.923 232.01 232.7 231.87 232.36C231.797 232.193 231.76 231.993 231.76 231.76V228.82H230.99V228.22H231.76V226.89H232.54V228.22H234.04V228.82H232.54V231.75C232.54 232.237 232.767 232.48 233.22 232.48C233.467 232.48 233.744 232.42 234.05 232.3L234.16 232.86Z" fill="#818586"/>
<path opacity="0.5" d="M259.36 228.24C259.247 227.627 258.797 227.32 258.01 227.32C257.59 227.32 257.267 227.413 257.04 227.6C256.813 227.78 256.7 228 256.7 228.26C256.7 228.513 256.77 228.707 256.91 228.84C257.05 228.973 257.277 229.09 257.59 229.19L258.9 229.64C259.347 229.793 259.7 230.003 259.96 230.27C260.227 230.537 260.36 230.913 260.36 231.4C260.36 231.88 260.153 232.287 259.74 232.62C259.327 232.947 258.773 233.11 258.08 233.11C257.387 233.11 256.817 232.937 256.37 232.59C255.93 232.237 255.703 231.743 255.69 231.11H256.46C256.46 231.523 256.603 231.84 256.89 232.06C257.183 232.28 257.557 232.39 258.01 232.39C258.47 232.39 258.833 232.29 259.1 232.09C259.367 231.883 259.5 231.643 259.5 231.37C259.5 231.09 259.417 230.87 259.25 230.71C259.09 230.55 258.85 230.417 258.53 230.31L257.42 229.9C256.9 229.727 256.507 229.52 256.24 229.28C255.973 229.04 255.84 228.69 255.84 228.23C255.84 227.763 256.027 227.377 256.4 227.07C256.773 226.757 257.297 226.6 257.97 226.6C258.643 226.6 259.157 226.75 259.51 227.05C259.87 227.343 260.077 227.74 260.13 228.24H259.36ZM265.025 229.9C265.025 229.467 264.935 229.157 264.755 228.97C264.575 228.783 264.311 228.69 263.965 228.69C263.625 228.69 263.348 228.76 263.135 228.9C262.928 229.033 262.825 229.247 262.825 229.54H261.955C261.955 228.807 262.348 228.353 263.135 228.18C263.375 228.127 263.635 228.1 263.915 228.1C264.508 228.1 264.971 228.25 265.305 228.55C265.638 228.85 265.805 229.307 265.805 229.92V233H265.125L265.045 232.2C264.751 232.807 264.221 233.11 263.455 233.11C262.941 233.11 262.528 232.967 262.215 232.68C261.908 232.393 261.755 232.037 261.755 231.61C261.755 231.183 261.925 230.85 262.265 230.61C262.611 230.37 263.041 230.25 263.555 230.25C264.068 230.25 264.558 230.337 265.025 230.51V229.9ZM265.025 231.01C264.551 230.877 264.138 230.81 263.785 230.81C263.431 230.81 263.145 230.873 262.925 231C262.705 231.127 262.595 231.327 262.595 231.6C262.595 232.2 262.935 232.5 263.615 232.5C264.001 232.5 264.331 232.363 264.605 232.09C264.885 231.81 265.025 231.45 265.025 231.01ZM270.16 232.86C269.587 233.127 269.064 233.183 268.59 233.03C268.25 232.923 268.01 232.7 267.87 232.36C267.797 232.193 267.76 231.993 267.76 231.76V228.82H266.99V228.22H267.76V226.89H268.54V228.22H270.04V228.82H268.54V231.75C268.54 232.237 268.767 232.48 269.22 232.48C269.467 232.48 269.744 232.42 270.05 232.3L270.16 232.86Z" fill="#818586"/>
<g opacity="0.1" filter="url(#filter0_f_1_428)">
<line x1="27.5" y1="37.5" x2="270.5" y2="37.5" stroke="#ABAEAF" stroke-miterlimit="16" stroke-linecap="round" stroke-dasharray="3 3"/>
<line x1="27.5" y1="71.5" x2="270.5" y2="71.5" stroke="#ABAEAF" stroke-miterlimit="16" stroke-linecap="round" stroke-dasharray="3 3"/>
<line x1="27.5" y1="105.5" x2="270.5" y2="105.5" stroke="#ABAEAF" stroke-miterlimit="16" stroke-linecap="round" stroke-dasharray="3 3"/>
<line x1="27.5" y1="139.5" x2="270.5" y2="139.5" stroke="#ABAEAF" stroke-miterlimit="16" stroke-linecap="round" stroke-dasharray="3 3"/>
<line x1="27.5" y1="173.5" x2="270.5" y2="173.5" stroke="#ABAEAF" stroke-miterlimit="16" stroke-linecap="round" stroke-dasharray="3 3"/>
<line x1="27.5" y1="207.5" x2="270.5" y2="207.5" stroke="#ABAEAF" stroke-miterlimit="16" stroke-linecap="round" stroke-dasharray="3 3"/>
</g>
<path d="M5.868 2.40399L5.772 3.61599L4.32 3.54399H3.84L3.78 7.55199L3.852 9.99999H2.22L2.304 7.69599L2.244 3.54399H1.764L0.288 3.61599L0.18 3.48399L0.288 2.27199H5.772L5.868 2.40399ZM10.294 6.51999C10.302 6.23199 10.242 6.01199 10.114 5.85999C9.98603 5.70799 9.79803 5.63199 9.55003 5.63199C9.19003 5.63199 8.80603 5.80399 8.39803 6.14799L8.37403 7.53999L8.45803 9.99999H6.86203L6.94603 7.68399L6.87403 1.69599L8.47003 1.57599L8.41003 5.21199H8.48203C8.92203 4.81199 9.40603 4.52399 9.93403 4.34799C10.542 4.34799 11.002 4.48799 11.314 4.76799C11.634 5.03999 11.79 5.43599 11.782 5.95599L11.746 7.55199L11.806 9.99999H10.21L10.294 6.51999ZM13.3205 7.69599L13.2605 4.52799L14.8325 4.39599L14.7605 7.53999L14.8325 9.99999H13.2365L13.3205 7.69599ZM14.0765 1.68399C14.3245 1.68399 14.5165 1.75599 14.6525 1.89999C14.7965 2.04399 14.8685 2.24399 14.8685 2.49999C14.8685 2.77199 14.7925 2.98799 14.6405 3.14799C14.4885 3.30799 14.2805 3.38799 14.0165 3.38799C13.7525 3.38799 13.5485 3.31599 13.4045 3.17199C13.2685 3.02799 13.2005 2.82399 13.2005 2.55999C13.2005 2.29599 13.2765 2.08399 13.4285 1.92399C13.5885 1.76399 13.8045 1.68399 14.0765 1.68399ZM18.2134 4.32399C18.7574 4.32399 19.2694 4.41599 19.7494 4.59999L19.5334 5.77599L19.3414 5.83599C19.1094 5.68399 18.8774 5.56799 18.6454 5.48799C18.4134 5.40799 18.2094 5.36799 18.0334 5.36799C17.8414 5.36799 17.6894 5.41999 17.5774 5.52399C17.4654 5.61999 17.4094 5.73999 17.4094 5.88399C17.4094 6.05199 17.4814 6.18799 17.6254 6.29199C17.7774 6.39599 18.0134 6.51199 18.3334 6.63999C18.6534 6.76799 18.9174 6.89199 19.1254 7.01199C19.3334 7.13199 19.5094 7.29999 19.6534 7.51599C19.8054 7.72399 19.8814 7.98399 19.8814 8.29599C19.8814 8.61599 19.7974 8.91599 19.6294 9.19599C19.4694 9.46799 19.2214 9.69199 18.8854 9.86799C18.5494 10.036 18.1374 10.12 17.6494 10.12C17.0734 10.12 16.4774 9.99999 15.8614 9.75999L16.0414 8.51199L16.1974 8.41599C16.4454 8.62399 16.7214 8.79199 17.0254 8.91999C17.3294 9.03999 17.5974 9.09999 17.8294 9.09999C18.0454 9.09999 18.2134 9.04799 18.3334 8.94399C18.4534 8.83199 18.5134 8.69999 18.5134 8.54799C18.5134 8.37999 18.4374 8.24399 18.2854 8.13999C18.1414 8.03599 17.9094 7.91999 17.5894 7.79199C17.2614 7.64799 16.9934 7.51999 16.7854 7.40799C16.5774 7.28799 16.3974 7.11999 16.2454 6.90399C16.1014 6.68799 16.0294 6.41999 16.0294 6.09999C16.0294 5.57999 16.2254 5.15599 16.6174 4.82799C17.0094 4.49199 17.5414 4.32399 18.2134 4.32399ZM30.2633 9.99999H28.5593L27.4073 6.30399H27.2993L26.1353 9.99999H24.4193L22.2593 2.27199H23.8553L23.9753 3.21999L25.3433 8.31999H25.4513L26.7593 4.15599L26.2073 2.27199H27.8633L28.0433 3.38799L29.4353 8.31999H29.5433L31.1033 3.32799L31.2953 2.27199H32.8073L30.2633 9.99999ZM37.3606 7.40799L34.1206 7.43199C34.1926 8.43199 34.7006 8.93199 35.6446 8.93199C36.1406 8.93199 36.6926 8.79199 37.3006 8.51199L37.4326 8.59599L37.1926 9.78399C36.5846 10.008 36.0126 10.12 35.4766 10.12C34.5966 10.12 33.9046 9.86399 33.4006 9.35199C32.9046 8.83999 32.6566 8.13199 32.6566 7.22799C32.6566 6.33199 32.9006 5.62399 33.3886 5.10399C33.8766 4.57599 34.5366 4.31199 35.3686 4.31199C36.0806 4.31199 36.6286 4.50799 37.0126 4.89999C37.4046 5.28399 37.6006 5.82399 37.6006 6.51999C37.6006 6.70399 37.5806 6.93599 37.5406 7.21599L37.3606 7.40799ZM36.2086 6.33999C36.2086 6.01999 36.1366 5.77999 35.9926 5.61999C35.8486 5.45199 35.6366 5.36799 35.3566 5.36799C35.0446 5.36799 34.7846 5.47199 34.5766 5.67999C34.3686 5.87999 34.2286 6.17199 34.1566 6.55599L36.1846 6.50799L36.2086 6.33999ZM43.0208 7.40799L39.7808 7.43199C39.8528 8.43199 40.3608 8.93199 41.3048 8.93199C41.8008 8.93199 42.3528 8.79199 42.9608 8.51199L43.0928 8.59599L42.8528 9.78399C42.2448 10.008 41.6728 10.12 41.1367 10.12C40.2568 10.12 39.5648 9.86399 39.0608 9.35199C38.5648 8.83999 38.3168 8.13199 38.3168 7.22799C38.3168 6.33199 38.5608 5.62399 39.0488 5.10399C39.5368 4.57599 40.1968 4.31199 41.0288 4.31199C41.7408 4.31199 42.2888 4.50799 42.6728 4.89999C43.0648 5.28399 43.2608 5.82399 43.2608 6.51999C43.2608 6.70399 43.2408 6.93599 43.2008 7.21599L43.0208 7.40799ZM41.8688 6.33999C41.8688 6.01999 41.7968 5.77999 41.6528 5.61999C41.5088 5.45199 41.2968 5.36799 41.0168 5.36799C40.7048 5.36799 40.4448 5.47199 40.2368 5.67999C40.0288 5.87999 39.8888 6.17199 39.8168 6.55599L41.8448 6.50799L41.8688 6.33999ZM45.874 7.53999L45.958 9.99999H44.362L44.446 7.68399L44.374 1.69599L45.97 1.57599L45.874 7.53999ZM47.494 6.93999C47.926 7.63599 48.574 8.56799 49.438 9.73599L49.426 9.90399C49.146 9.96799 48.846 10.016 48.526 10.048C48.214 10.088 48.022 10.112 47.95 10.12L47.782 10.048C47.078 9.05599 46.47 8.06799 45.958 7.08399V6.97599L47.35 4.99599L47.638 4.41999H49.318L47.494 6.93999ZM50.9394 2.19999C51.1714 2.32799 51.3434 2.48399 51.4554 2.66799C51.5674 2.84399 51.6234 3.06399 51.6234 3.32799C51.6234 3.93599 51.2554 4.59199 50.5194 5.29599L49.9674 4.93599L49.9434 4.81599C50.2634 4.46399 50.4234 4.12399 50.4234 3.79599C50.4234 3.60399 50.3874 3.43999 50.3154 3.30399C50.2434 3.16799 50.1194 3.04799 49.9434 2.94399V2.81199C50.2794 2.55599 50.6114 2.35199 50.9394 2.19999ZM54.5063 4.32399C55.0503 4.32399 55.5623 4.41599 56.0423 4.59999L55.8263 5.77599L55.6343 5.83599C55.4023 5.68399 55.1703 5.56799 54.9383 5.48799C54.7063 5.40799 54.5023 5.36799 54.3263 5.36799C54.1343 5.36799 53.9823 5.41999 53.8703 5.52399C53.7583 5.61999 53.7023 5.73999 53.7023 5.88399C53.7023 6.05199 53.7743 6.18799 53.9183 6.29199C54.0703 6.39599 54.3063 6.51199 54.6263 6.63999C54.9463 6.76799 55.2103 6.89199 55.4183 7.01199C55.6263 7.13199 55.8023 7.29999 55.9463 7.51599C56.0983 7.72399 56.1743 7.98399 56.1743 8.29599C56.1743 8.61599 56.0903 8.91599 55.9223 9.19599C55.7623 9.46799 55.5143 9.69199 55.1783 9.86799C54.8423 10.036 54.4303 10.12 53.9423 10.12C53.3663 10.12 52.7703 9.99999 52.1543 9.75999L52.3343 8.51199L52.4903 8.41599C52.7383 8.62399 53.0143 8.79199 53.3183 8.91999C53.6223 9.03999 53.8903 9.09999 54.1223 9.09999C54.3383 9.09999 54.5063 9.04799 54.6263 8.94399C54.7463 8.83199 54.8063 8.69999 54.8063 8.54799C54.8063 8.37999 54.7303 8.24399 54.5783 8.13999C54.4343 8.03599 54.2023 7.91999 53.8823 7.79199C53.5543 7.64799 53.2863 7.51999 53.0783 7.40799C52.8703 7.28799 52.6903 7.11999 52.5383 6.90399C52.3943 6.68799 52.3223 6.41999 52.3223 6.09999C52.3223 5.57999 52.5183 5.15599 52.9103 4.82799C53.3023 4.49199 53.8343 4.32399 54.5063 4.32399ZM61.7442 2.17599C62.4002 2.17599 63.0522 2.30799 63.7002 2.57199L63.4362 3.97599L63.1962 4.07199C62.9242 3.87999 62.6402 3.72799 62.3442 3.61599C62.0562 3.50399 61.7922 3.44799 61.5522 3.44799C61.2322 3.44799 60.9762 3.53599 60.7842 3.71199C60.5922 3.87999 60.4962 4.07599 60.4962 4.29999C60.4962 4.53199 60.6002 4.72799 60.8082 4.88799C61.0242 5.04799 61.3602 5.23599 61.8162 5.45199C62.2562 5.65199 62.6122 5.83999 62.8842 6.01599C63.1642 6.18399 63.4002 6.40799 63.5922 6.68799C63.7922 6.96799 63.8922 7.31199 63.8922 7.71999C63.8922 8.15999 63.7722 8.56399 63.5322 8.93199C63.2922 9.29199 62.9522 9.57999 62.5122 9.79599C62.0722 10.004 61.5642 10.108 60.9882 10.108C60.2282 10.108 59.4642 9.94399 58.6962 9.61599L58.9242 8.10399L59.1042 8.00799C59.4242 8.28799 59.7722 8.50399 60.1482 8.65599C60.5322 8.79999 60.8722 8.87199 61.1682 8.87199C61.5202 8.87199 61.7922 8.78799 61.9842 8.61999C62.1842 8.44399 62.2842 8.23599 62.2842 7.99599C62.2842 7.73999 62.1762 7.53199 61.9602 7.37199C61.7522 7.21199 61.4122 7.01999 60.9402 6.79599C60.5082 6.60399 60.1562 6.42399 59.8842 6.25599C59.6122 6.08799 59.3802 5.86399 59.1882 5.58399C58.9962 5.30399 58.9002 4.96399 58.9002 4.56399C58.9002 4.11599 59.0202 3.71199 59.2602 3.35199C59.5002 2.98399 59.8362 2.69599 60.2682 2.48799C60.7002 2.27999 61.1922 2.17599 61.7442 2.17599ZM67.2888 8.82399C67.5448 8.82399 67.8128 8.75599 68.0928 8.61999L68.2248 8.73999L68.0688 9.68799C67.6608 9.89599 67.2448 10.024 66.8208 10.072C65.7408 9.95999 65.2008 9.43199 65.2008 8.48799L65.2608 7.49199L65.2488 5.42799H64.5048L64.4448 5.34399L64.5288 4.46799H65.2368V3.54399L66.6888 3.07599L66.7968 3.17199L66.7608 4.46799H68.1888L68.2368 4.55199L68.1648 5.42799H66.7368L66.6648 8.11599C66.6648 8.37199 66.7128 8.55599 66.8088 8.66799C66.9048 8.77199 67.0648 8.82399 67.2888 8.82399ZM71.2835 4.31199C71.8995 4.31199 72.3795 4.45199 72.7235 4.73199C73.0755 5.00399 73.2515 5.38799 73.2515 5.88399C73.2515 6.02799 73.2275 6.48399 73.1795 7.25199C73.1715 7.47599 73.1595 7.70799 73.1435 7.94799C73.1275 8.17999 73.1195 8.37999 73.1195 8.54799C73.1195 8.68399 73.1395 8.77999 73.1795 8.83599C73.2195 8.88399 73.2915 8.90799 73.3955 8.90799C73.4755 8.90799 73.5795 8.89199 73.7075 8.85999L73.8275 8.95599L73.6835 9.79599C73.4275 9.96399 73.1355 10.064 72.8075 10.096C72.5675 10.072 72.3675 9.98799 72.2075 9.84399C72.0475 9.69199 71.9395 9.48399 71.8835 9.21999H71.7995C71.3995 9.64399 70.9875 9.93999 70.5635 10.108C69.9875 10.1 69.5355 9.94799 69.2075 9.65199C68.8795 9.35599 68.7155 8.95199 68.7155 8.43999C68.7155 8.03999 68.8155 7.72799 69.0155 7.50399C69.2235 7.27199 69.5355 7.11599 69.9515 7.03599L71.7875 6.68799V6.19599C71.7875 5.67599 71.5315 5.41599 71.0195 5.41599C70.7715 5.41599 70.5075 5.47199 70.2275 5.58399C69.9555 5.69599 69.6475 5.87199 69.3035 6.11199L69.1835 6.03999L69.0035 4.98399C69.3475 4.76799 69.7155 4.60399 70.1075 4.49199C70.4995 4.37199 70.8915 4.31199 71.2835 4.31199ZM70.5035 7.76799C70.3755 7.79999 70.2795 7.85599 70.2155 7.93599C70.1595 8.00799 70.1315 8.11999 70.1315 8.27199C70.1315 8.47999 70.1875 8.64399 70.2995 8.76399C70.4115 8.87599 70.5675 8.93199 70.7675 8.93199C71.0795 8.93199 71.4075 8.74799 71.7515 8.37999L71.7755 7.49199L70.5035 7.76799ZM77.1208 8.82399C77.3768 8.82399 77.6448 8.75599 77.9248 8.61999L78.0568 8.73999L77.9008 9.68799C77.4928 9.89599 77.0768 10.024 76.6528 10.072C75.5728 9.95999 75.0328 9.43199 75.0328 8.48799L75.0928 7.49199L75.0808 5.42799H74.3368L74.2768 5.34399L74.3608 4.46799H75.0688V3.54399L76.5208 3.07599L76.6288 3.17199L76.5928 4.46799H78.0208L78.0688 4.55199L77.9968 5.42799H76.5688L76.4968 8.11599C76.4968 8.37199 76.5448 8.55599 76.6408 8.66799C76.7368 8.77199 76.8968 8.82399 77.1208 8.82399ZM80.7915 4.32399C81.3355 4.32399 81.8475 4.41599 82.3275 4.59999L82.1115 5.77599L81.9195 5.83599C81.6875 5.68399 81.4555 5.56799 81.2235 5.48799C80.9915 5.40799 80.7875 5.36799 80.6115 5.36799C80.4195 5.36799 80.2675 5.41999 80.1555 5.52399C80.0435 5.61999 79.9875 5.73999 79.9875 5.88399C79.9875 6.05199 80.0595 6.18799 80.2035 6.29199C80.3555 6.39599 80.5915 6.51199 80.9115 6.63999C81.2315 6.76799 81.4955 6.89199 81.7035 7.01199C81.9115 7.13199 82.0875 7.29999 82.2315 7.51599C82.3835 7.72399 82.4595 7.98399 82.4595 8.29599C82.4595 8.61599 82.3755 8.91599 82.2075 9.19599C82.0475 9.46799 81.7995 9.69199 81.4635 9.86799C81.1275 10.036 80.7155 10.12 80.2275 10.12C79.6515 10.12 79.0555 9.99999 78.4395 9.75999L78.6195 8.51199L78.7755 8.41599C79.0235 8.62399 79.2995 8.79199 79.6035 8.91999C79.9075 9.03999 80.1755 9.09999 80.4075 9.09999C80.6235 9.09999 80.7915 9.04799 80.9115 8.94399C81.0315 8.83199 81.0915 8.69999 81.0915 8.54799C81.0915 8.37999 81.0155 8.24399 80.8635 8.13999C80.7195 8.03599 80.4875 7.91999 80.1675 7.79199C79.8395 7.64799 79.5715 7.51999 79.3635 7.40799C79.1555 7.28799 78.9755 7.11999 78.8235 6.90399C78.6795 6.68799 78.6075 6.41999 78.6075 6.09999C78.6075 5.57999 78.8035 5.15599 79.1955 4.82799C79.5875 4.49199 80.1195 4.32399 80.7915 4.32399Z" fill="#42484A"/>
<path d="M223.42 2.176C224.076 2.176 224.728 2.308 225.376 2.572L225.112 3.976L224.872 4.072C224.6 3.88 224.316 3.728 224.02 3.616C223.732 3.504 223.468 3.448 223.228 3.448C222.908 3.448 222.652 3.536 222.46 3.712C222.268 3.88 222.172 4.076 222.172 4.3C222.172 4.532 222.276 4.728 222.484 4.888C222.7 5.048 223.036 5.236 223.492 5.452C223.932 5.652 224.288 5.84 224.56 6.016C224.84 6.184 225.076 6.408 225.268 6.688C225.468 6.968 225.568 7.312 225.568 7.72C225.568 8.16 225.448 8.564 225.208 8.932C224.968 9.292 224.628 9.58 224.188 9.796C223.748 10.004 223.24 10.108 222.664 10.108C221.904 10.108 221.14 9.944 220.372 9.616L220.6 8.104L220.78 8.008C221.1 8.288 221.448 8.504 221.824 8.656C222.208 8.8 222.548 8.872 222.844 8.872C223.196 8.872 223.468 8.788 223.66 8.62C223.86 8.444 223.96 8.236 223.96 7.996C223.96 7.74 223.852 7.532 223.636 7.372C223.428 7.212 223.088 7.02 222.616 6.796C222.184 6.604 221.832 6.424 221.56 6.256C221.288 6.088 221.056 5.864 220.864 5.584C220.672 5.304 220.576 4.964 220.576 4.564C220.576 4.116 220.696 3.712 220.936 3.352C221.176 2.984 221.512 2.696 221.944 2.488C222.376 2.28 222.868 2.176 223.42 2.176ZM230.118 6.52C230.126 6.232 230.066 6.012 229.938 5.86C229.81 5.708 229.622 5.632 229.374 5.632C229.014 5.632 228.63 5.804 228.222 6.148L228.198 7.54L228.282 10H226.686L226.77 7.684L226.698 1.696L228.294 1.576L228.234 5.212H228.306C228.746 4.812 229.23 4.524 229.758 4.348C230.366 4.348 230.826 4.488 231.138 4.768C231.458 5.04 231.614 5.436 231.606 5.956L231.57 7.552L231.63 10H230.034L230.118 6.52ZM235.353 4.312C236.169 4.312 236.793 4.552 237.225 5.032C237.657 5.512 237.873 6.204 237.873 7.108C237.873 8.084 237.641 8.832 237.177 9.352C236.713 9.864 236.045 10.12 235.173 10.12C234.357 10.12 233.733 9.88 233.301 9.4C232.869 8.92 232.653 8.228 232.653 7.324C232.653 6.348 232.885 5.604 233.349 5.092C233.813 4.572 234.481 4.312 235.353 4.312ZM235.245 5.392C234.861 5.392 234.581 5.52 234.405 5.776C234.237 6.032 234.153 6.444 234.153 7.012C234.153 7.748 234.241 8.272 234.417 8.584C234.593 8.896 234.881 9.052 235.281 9.052C235.665 9.052 235.941 8.928 236.109 8.68C236.285 8.424 236.373 8.008 236.373 7.432C236.373 6.704 236.281 6.184 236.097 5.872C235.921 5.552 235.637 5.392 235.245 5.392ZM239.834 5.26L240.518 8.392H240.614L241.454 5.344L241.646 4.42H243.194L243.314 5.26L244.022 8.38H244.118L244.934 5.344L245.126 4.42H246.47L244.73 10H243.23L242.378 6.412H242.27L241.274 10H239.702L238.25 4.456L239.702 4.384L239.834 5.26ZM255.297 10H253.641L253.449 8.992L253.245 8.272L251.733 8.236L250.401 8.272L250.197 8.908L249.993 10H248.385L251.001 2.272H252.933L255.297 10ZM252.897 7.012L251.985 3.796H251.877L250.821 7.012L251.853 7.036L252.897 7.012ZM257.882 7.54L257.966 10H256.37L256.454 7.684L256.382 1.696L257.978 1.576L257.882 7.54ZM261.034 7.54L261.118 10H259.522L259.606 7.684L259.534 1.696L261.13 1.576L261.034 7.54Z" fill="#61B15A"/>
<rect opacity="0.75" x="55" y="190" width="12" height="18" rx="6" fill="#FFF76A"/>
<rect opacity="0.75" x="94" y="171" width="12" height="37" rx="6" fill="#FFF76A"/>
<rect opacity="0.75" x="133" y="134" width="12" height="74" rx="6" fill="#FFF76A"/>
<rect opacity="0.75" x="170" y="152" width="12" height="56" rx="6" fill="#FFF76A"/>
<rect opacity="0.75" x="204" y="165" width="12" height="43" rx="6" fill="#FFF76A"/>
<rect opacity="0.75" x="239" y="125" width="12" height="83" rx="6" fill="#FFF76A"/>
<rect x="36" y="179" width="12" height="29" rx="6" fill="#ADCE74"/>
<rect x="74" y="152" width="12" height="56" rx="6" fill="#ADCE74"/>
<rect x="113" y="156" width="12" height="52" rx="6" fill="#ADCE74"/>
<rect x="152" y="85" width="12" height="123" rx="6" fill="#ADCE74"/>
<rect x="187" y="125" width="12" height="83" rx="6" fill="#ADCE74"/>
<rect x="221" y="100" width="12" height="108" rx="6" fill="#ADCE74"/>
<rect x="257" y="62" width="12" height="146" rx="6" fill="#ADCE74"/>
<defs>
<filter id="filter0_f_1_428" x="26" y="36" width="246" height="173" filterUnits="userSpaceOnUse" color-interpolation-filters="sRGB">
<feFlood flood-opacity="0" result="BackgroundImageFix"/>
<feBlend mode="normal" in="SourceGraphic" in2="BackgroundImageFix" result="shape"/>
<feGaussianBlur stdDeviation="0.5" result="effect1_foregroundBlur_1_428"/>
</filter>
</defs>
</svg>
