<svg width="13" height="12" viewBox="0 0 13 12" fill="none" xmlns="http://www.w3.org/2000/svg">
<path d="M12.4486 4.50068C12.2984 4.04015 11.8883 3.74259 11.4039 3.74259H8.28007L7.29637 0.755229C7.14515 0.296001 6.73591 0 6.2529 0C6.25258 0 4.78735 4.96645 4.78735 4.96645L6.25258 9.93289L8.78809 11.7846C9.18031 12.071 9.68782 12.0719 10.081 11.7869C10.4743 11.5019 10.6314 11.0194 10.4813 10.5575L9.51204 7.57426H9.5251L12.052 5.72898C12.4432 5.44333 12.5989 4.96117 12.4486 4.50068Z" fill="white"/>
<path d="M6.24818 2.44071e-05C5.76319 0.00192921 5.35412 0.301593 5.20606 0.763458L4.25102 3.74259H1.10119C0.615567 3.74259 0.205156 4.04115 0.0556535 4.50319C-0.0938732 4.96523 0.0638344 5.44763 0.457444 5.73213L2.99544 7.56662L2.02365 10.5575C1.87359 11.0193 2.03071 11.5019 2.42395 11.7869C2.81717 12.0718 3.3247 12.0709 3.7169 11.7845L6.25248 9.93285C6.25253 9.93289 6.25253 0 6.25253 0C6.25109 0 6.2496 -1.34157e-08 6.24818 2.44071e-05Z" fill="white"/>
</svg>
