<svg width="308" height="186" viewBox="0 0 308 186" fill="none" xmlns="http://www.w3.org/2000/svg">
<path d="M34.4788 155.3L305.878 153.809" stroke="#ABAEAF" stroke-opacity="0.2" stroke-linecap="square"/>
<path d="M34.6812 117.657L306.08 116.167" stroke="#ABAEAF" stroke-opacity="0.2" stroke-linecap="square"/>
<path d="M34.8842 80.0148L306.283 78.524" stroke="#ABAEAF" stroke-opacity="0.2" stroke-linecap="square"/>
<path d="M35.0872 42.3723L306.486 40.8815" stroke="#ABAEAF" stroke-opacity="0.2" stroke-linecap="square"/>
<path d="M35.2903 4.72976L306.69 3.239" stroke="#ABAEAF" stroke-opacity="0.2" stroke-linecap="square"/>
<path d="M49.3952 107.854C60.6842 105.819 70.0235 93.7346 83.4916 91.6381C90.6699 90.5207 96.4046 92.5872 102.798 95.8122C109.191 99.0371 107.929 100.452 122.333 102.886C134.221 104.895 137.294 112.018 148.949 112.813C160.603 113.608 166.141 86.6926 178.438 88.8693C190.736 91.046 193.226 85.2298 204.738 96.1634C216.25 107.097 226.988 98.2629 241.525 95.9388C256.062 93.6147 259.808 100.556 266.706 99.6209C273.604 98.6853 279.719 115.625 285.614 118.061C291.51 120.498 293.234 111.52 305.789 111.451" stroke="#ADCE74" stroke-width="2" stroke-linecap="round" stroke-linejoin="round"/>
<path d="M49.7014 89.6864C64.5225 87.146 63.4566 101.759 82.942 103.783C102.428 105.808 107.937 90.8593 116.845 86.5481C125.753 82.2369 129.806 62.792 144.607 64.0221C159.408 65.2523 166.741 78.3527 179.072 79.9243C191.403 81.4959 193.812 92.3548 205.368 100.324C216.925 108.293 227.532 109.219 242.101 107.499C256.671 105.78 260.709 89.1831 267.623 88.4894C274.537 87.7956 280.664 95.6659 286.578 97.4367C292.491 99.2075 294.176 107.213 306.762 107.144" stroke="#FFF76A" stroke-width="2" stroke-linecap="round" stroke-linejoin="round"/>
<path fill-rule="evenodd" clip-rule="evenodd" d="M247.239 153.265L247.566 92.6612L248.546 92.6558L248.219 153.26L247.239 153.265Z" fill="#EAEBEB"/>
<g filter="url(#filter0_dd_1_28)">
<rect width="13.719" height="13.98" rx="6.85949" transform="matrix(0.999985 -0.0054928 -0.00539025 0.999985 241.223 87.7034)" fill="#EAEBEB"/>
<rect x="0.994595" y="0.994493" width="11.719" height="11.98" rx="5.85949" transform="matrix(0.999985 -0.0054928 -0.00539025 0.999985 241.229 87.7088)" stroke="#EAEBEB" stroke-width="2"/>
</g>
<g filter="url(#filter1_dd_1_28)">
<path fill-rule="evenodd" clip-rule="evenodd" d="M252.287 82.2636C250.186 84.7392 246.802 84.7578 244.727 82.3051L241.151 78.6744C240.216 77.7255 238.936 77.1953 237.597 77.2027L228.036 77.2552C220.735 77.2953 218.091 76.6146 215.428 75.3239C212.766 74.0331 210.681 72.129 209.267 69.6959C207.852 67.2628 207.105 64.8459 207.141 58.1691L207.23 41.6512C207.266 34.9745 208.039 32.5492 209.48 30.1004C210.921 27.6516 213.026 25.7245 215.703 24.4044C218.379 23.0843 221.031 22.3746 228.333 22.3345L268.238 22.1153C275.539 22.0752 278.183 22.7558 280.846 24.0466C283.508 25.3373 285.593 27.2415 287.007 29.6746C288.422 32.1076 289.169 34.5246 289.133 41.2014L289.044 57.7192C289.008 64.396 288.235 66.8213 286.794 69.2701C285.353 71.7188 283.248 73.646 280.571 74.9661C277.895 76.2861 275.243 76.9959 267.942 77.036L261.566 77.071C258.888 77.0857 256.316 78.1742 254.426 80.0926L252.287 82.2636Z" fill="white"/>
</g>
<path d="M237.775 65.2337L238.678 65.2287L238.71 59.3099L238.769 59.3096L241.186 65.215L242.002 65.2105L244.483 59.2782L244.543 59.2778L244.511 65.1967L245.413 65.1917L245.455 57.4414L244.332 57.4475L241.644 63.9288L241.558 63.9293L238.94 57.4772L237.817 57.4833L237.775 65.2337ZM248.861 65.2749C249.639 65.2706 250.248 64.9289 250.617 64.3092L250.703 64.3087L250.698 65.1627L251.633 65.1576L251.654 61.1938C251.66 59.9907 250.875 59.2699 249.462 59.2777C248.227 59.2845 247.343 59.9016 247.187 60.8101L247.182 60.8424L248.116 60.8372L248.122 60.8211C248.275 60.3691 248.733 60.1088 249.426 60.105C250.29 60.1002 250.723 60.4846 250.719 61.1989L250.717 61.7253L249.056 61.8364C247.708 61.9244 246.942 62.5248 246.936 63.556L246.936 63.5668C246.931 64.6195 247.76 65.2809 248.861 65.2749ZM247.892 63.54L247.892 63.5293C247.896 62.9546 248.284 62.6409 249.165 62.5824L250.712 62.4772L250.71 63.0036C250.705 63.8307 250.009 64.4575 249.058 64.4628C248.387 64.4665 247.889 64.1255 247.892 63.54ZM253.609 67.1769C254.635 67.1713 255.115 66.7927 255.6 65.4903L257.894 59.3334L256.911 59.3388L255.301 64.1116L255.215 64.1121L253.651 59.3567L252.652 59.3622L254.764 65.1458L254.655 65.4901C254.441 66.1572 254.118 66.4007 253.586 66.4036C253.457 66.4043 253.312 66.3998 253.2 66.3789L253.195 67.147C253.324 67.1677 253.485 67.1776 253.609 67.1769Z" fill="#666666"/>
<path d="M222.789 48.3969L223.646 48.3922L223.653 47.1764C225.602 47.0265 227.079 45.9784 227.089 44.1767L227.089 44.162C227.098 42.58 226.047 41.7948 224.094 41.3515L223.685 41.2585L223.7 38.4168C224.578 38.5364 225.183 39.0531 225.274 39.9095L225.281 39.9241L226.98 39.9075L226.98 39.9001C226.923 38.2233 225.611 37.088 223.708 36.9446L223.715 35.7142L222.858 35.7189L222.851 36.9493C220.939 37.0916 219.563 38.1905 219.554 39.8677L219.554 39.8823C219.546 41.4058 220.567 42.2497 222.447 42.6715L222.82 42.7573L222.804 45.7163C221.706 45.6051 221.167 45.0368 221.047 44.2392L221.039 44.2246L219.34 44.2412L219.333 44.2486C219.382 46.0207 220.856 47.0673 222.796 47.1811L222.789 48.3969ZM221.32 39.7408L221.32 39.7262C221.323 39.0963 221.846 38.5441 222.843 38.4215L222.829 41.0655C221.746 40.7858 221.317 40.356 221.32 39.7408ZM225.323 44.3475L225.323 44.3622C225.319 45.0873 224.804 45.6101 223.661 45.7116L223.676 42.9504C224.926 43.2584 225.327 43.6517 225.323 44.3475ZM229.211 47.3143L236.55 47.274L236.558 45.7066L231.775 45.7329L231.776 45.5791L233.904 43.5167C235.84 41.6531 236.424 40.6978 236.43 39.4967L236.43 39.4747C236.44 37.6949 234.967 36.4507 232.909 36.462C230.705 36.4741 229.159 37.8594 229.149 39.8296L229.156 39.8516L230.914 39.8492L230.921 39.8199C230.927 38.7286 231.685 37.9847 232.806 37.9786C233.905 37.9725 234.567 38.672 234.562 39.6461L234.562 39.6681C234.557 40.481 234.152 41.0179 232.708 42.476L229.218 46.0399L229.211 47.3143ZM239.106 47.26L241.083 47.2491L245.651 38.2303L245.659 36.6556L238.306 36.696L238.297 38.2414L243.747 38.2114L243.746 38.3286L239.106 47.26ZM245.441 50.0156L246.686 50.0087L247.984 45.5999L246.102 45.6103L245.441 50.0156ZM254.001 47.4418C256.294 47.4292 257.936 45.8529 257.947 43.7069L257.947 43.6923C257.958 41.6855 256.545 40.2138 254.516 40.2249C253.066 40.2329 252.139 40.9777 251.747 41.8148L251.6 41.8156C251.648 39.6767 252.354 37.9078 254.097 37.8982C255.027 37.8931 255.676 38.3729 255.951 39.1111L255.98 39.1842L257.833 39.1741L257.818 39.0936C257.49 37.4768 256.046 36.3349 254.105 36.3455C251.447 36.3601 249.831 38.4783 249.812 42.0378L249.812 42.0525C249.791 45.861 251.746 47.4542 254.001 47.4418ZM251.919 43.762L251.919 43.7473C251.926 42.5535 252.846 41.6842 254.04 41.6777C255.241 41.6711 256.108 42.5452 256.101 43.7683L256.101 43.783C256.095 44.9621 255.167 45.8974 253.995 45.9038C252.823 45.9103 251.913 44.9705 251.919 43.762ZM263.721 47.3371C266.065 47.3243 267.676 46.0191 267.686 44.1588L267.686 44.1441C267.694 42.6793 266.666 41.7621 265.114 41.6242L265.114 41.5876C266.383 41.3169 267.332 40.4402 267.339 39.1292L267.339 39.1145C267.348 37.4593 265.941 36.3318 263.765 36.3437C261.634 36.3554 260.185 37.5645 260.014 39.3964L260.006 39.477L261.764 39.4674L261.772 39.3941C261.872 38.4488 262.644 37.8513 263.757 37.8452C264.885 37.839 265.534 38.4067 265.529 39.3735L265.529 39.3881C265.524 40.311 264.744 40.9744 263.579 40.9808L262.371 40.9874L262.363 42.3936L263.608 42.3868C264.963 42.3794 265.78 42.9901 265.774 44.1034L265.774 44.118C265.769 45.0994 264.952 45.785 263.729 45.7918C262.491 45.7986 261.667 45.1659 261.57 44.2729L261.563 44.1924L259.761 44.2023L259.768 44.2901C259.897 46.0984 261.406 47.3499 263.721 47.3371ZM269.713 47.0918L277.052 47.0515L277.06 45.4842L272.278 45.5104L272.279 45.3566L274.406 43.2943C276.342 41.4307 276.926 40.4754 276.933 39.2742L276.933 39.2522C276.942 37.4725 275.47 36.2282 273.412 36.2395C271.207 36.2516 269.662 37.637 269.651 39.6072L269.658 39.6291L271.416 39.6268L271.423 39.5974C271.429 38.5061 272.188 37.7623 273.308 37.7561C274.407 37.7501 275.07 38.4495 275.064 39.4236L275.064 39.4456C275.06 40.2586 274.654 40.7954 273.211 42.2535L269.72 45.8174L269.713 47.0918Z" fill="#253334"/>
<path d="M232.226 181.682L233.129 181.677L233.16 175.758L233.22 175.758L235.637 181.663L236.453 181.659L238.934 175.726L238.993 175.726L238.961 181.645L239.864 181.64L239.906 173.89L238.783 173.896L236.095 180.377L236.009 180.378L233.391 173.925L232.268 173.932L232.226 181.682ZM243.311 181.723C244.09 181.719 244.699 181.377 245.068 180.757L245.154 180.757L245.149 181.611L246.083 181.606L246.105 177.642C246.111 176.439 245.326 175.718 243.913 175.726C242.678 175.733 241.794 176.35 241.638 177.258L241.633 177.291L242.567 177.286L242.573 177.269C242.726 176.817 243.184 176.557 243.876 176.553C244.741 176.549 245.174 176.933 245.17 177.647L245.167 178.174L243.507 178.285C242.159 178.373 241.393 178.973 241.387 180.004L241.387 180.015C241.381 181.068 242.21 181.729 243.311 181.723ZM242.343 179.988L242.343 179.978C242.346 179.403 242.735 179.089 243.616 179.031L245.163 178.925L245.161 179.452C245.156 180.279 244.46 180.906 243.509 180.911C242.838 180.915 242.34 180.574 242.343 179.988ZM248.06 183.625C249.086 183.62 249.566 183.241 250.051 181.939L252.345 175.782L251.362 175.787L249.752 180.56L249.666 180.56L248.102 175.805L247.103 175.81L249.215 181.594L249.105 181.938C248.892 182.606 248.569 182.849 248.037 182.852C247.908 182.853 247.763 182.848 247.651 182.827L247.646 183.595C247.775 183.616 247.936 183.626 248.06 183.625Z" fill="#818586"/>
<path d="M187.702 181.943L188.717 181.938L189.508 179.715L192.591 179.698L193.357 181.912L194.372 181.907L191.557 174.172L190.601 174.177L187.702 181.943ZM191.029 175.426L191.115 175.426L192.31 178.878L189.797 178.892L191.029 175.426ZM195.603 183.833L196.537 183.828L196.553 180.981L196.639 180.981C196.952 181.597 197.643 181.991 198.438 181.986C199.909 181.978 200.872 180.797 200.882 178.981L200.882 178.97C200.891 177.166 199.936 175.984 198.47 175.992C197.664 175.997 197.018 176.381 196.66 177.028L196.574 177.028L196.579 176.105L195.644 176.11L195.603 183.833ZM198.227 181.16C197.175 181.166 196.535 180.342 196.542 179.005L196.542 178.994C196.549 177.657 197.198 176.826 198.251 176.82C199.309 176.815 199.933 177.628 199.926 178.976L199.926 178.986C199.918 180.335 199.286 181.154 198.227 181.16ZM202.327 181.863L203.262 181.858L203.281 178.27C203.285 177.421 203.922 176.854 204.814 176.849C205.018 176.848 205.195 176.868 205.388 176.899L205.393 175.992C205.302 175.976 205.103 175.956 204.926 175.957C204.142 175.961 203.598 176.318 203.374 176.927L203.288 176.927L203.293 176.068L202.358 176.073L202.327 181.863Z" fill="#818586"/>
<path d="M139.379 182.223L140.282 182.218L140.313 176.3L140.373 176.299L142.79 182.205L143.606 182.2L146.087 176.268L146.146 176.268L146.114 182.186L147.017 182.181L147.059 174.431L145.936 174.437L143.248 180.918L143.162 180.919L140.544 174.467L139.421 174.473L139.379 182.223ZM150.464 182.265C151.243 182.26 151.852 181.919 152.221 181.299L152.306 181.298L152.302 182.152L153.236 182.147L153.258 178.183C153.264 176.98 152.479 176.26 151.066 176.267C149.831 176.274 148.947 176.891 148.791 177.8L148.786 177.832L149.72 177.827L149.726 177.811C149.879 177.359 150.337 177.098 151.029 177.095C151.894 177.09 152.327 177.474 152.323 178.189L152.32 178.715L150.66 178.826C149.312 178.914 148.546 179.514 148.54 180.546L148.54 180.556C148.534 181.609 149.363 182.271 150.464 182.265ZM149.496 180.53L149.496 180.519C149.499 179.944 149.888 179.631 150.769 179.572L152.316 179.467L152.314 179.993C152.309 180.82 151.613 181.447 150.662 181.452C149.991 181.456 149.493 181.115 149.496 180.53ZM154.944 182.138L155.879 182.133L155.898 178.545C155.903 177.696 156.54 177.129 157.431 177.124C157.635 177.123 157.813 177.143 158.006 177.174L158.011 176.267C157.919 176.251 157.721 176.231 157.544 176.232C156.759 176.236 156.215 176.594 155.991 177.202L155.906 177.202L155.91 176.343L154.976 176.348L154.944 182.138Z" fill="#818586"/>
<path d="M91.2991 182.467L92.2658 182.462L92.2839 179.105L95.716 179.086L95.7206 178.227L92.2886 178.246L92.3029 175.582L96.0412 175.561L96.0458 174.691L91.3408 174.717L91.2991 182.467ZM99.8384 182.522C101.203 182.515 102.034 181.737 102.237 180.952L102.248 180.908L101.313 180.914L101.292 180.962C101.134 181.312 100.649 181.685 99.8644 181.69C98.8332 181.695 98.1763 181.001 98.1559 179.803L102.324 179.78L102.326 179.415C102.335 177.685 101.385 176.52 99.8116 176.529C98.2379 176.537 97.2108 177.767 97.2012 179.556L97.2012 179.561C97.1914 181.377 98.1841 182.531 99.8384 182.522ZM99.8018 177.361C100.656 177.356 101.287 177.895 101.377 179.039L98.176 179.056C98.284 177.955 98.9424 177.366 99.8018 177.361ZM106.638 182.485C108.104 182.477 109.072 181.285 109.082 179.48L109.082 179.469C109.092 177.654 108.142 176.483 106.67 176.491C105.876 176.495 105.181 176.896 104.86 177.516L104.774 177.516L104.792 174.304L103.857 174.31L103.814 182.398L104.748 182.393L104.753 181.469L104.839 181.469C105.19 182.112 105.832 182.489 106.638 182.485ZM106.428 181.659C105.375 181.665 104.735 180.841 104.742 179.504L104.742 179.493C104.749 178.156 105.398 177.325 106.451 177.319C107.509 177.313 108.133 178.126 108.126 179.474L108.126 179.485C108.119 180.833 107.486 181.653 106.428 181.659Z" fill="#818586"/>
<path d="M284.298 181.601C285.732 181.593 286.585 180.719 286.593 179.252L286.623 173.656L285.657 173.661L285.626 179.247C285.621 180.192 285.157 180.705 284.297 180.71C283.529 180.714 283.151 180.227 283.095 179.642L283.09 179.588L282.123 179.594L282.128 179.669C282.202 180.78 282.955 181.609 284.298 181.601ZM290.378 181.487C291.227 181.483 291.814 181.13 292.102 180.511L292.188 180.511L292.183 181.375L293.118 181.37L293.149 175.58L292.215 175.585L292.196 179.012C292.191 180.027 291.645 180.653 290.624 180.659C289.701 180.664 289.327 180.166 289.333 179.124L289.352 175.601L288.417 175.606L288.397 179.355C288.39 180.725 289.062 181.495 290.378 181.487ZM294.864 181.361L295.798 181.355L295.817 177.929C295.822 176.914 296.411 176.287 297.335 176.282C298.259 176.277 298.686 176.774 298.68 177.816L298.661 181.34L299.595 181.335L299.616 177.586C299.623 176.211 298.902 175.447 297.602 175.454C296.748 175.458 296.204 175.821 295.911 176.435L295.825 176.436L295.829 175.566L294.895 175.571L294.864 181.361Z" fill="#818586"/>
<path d="M48.3125 182.899C49.7465 182.891 50.5999 182.016 50.6078 180.55L50.6379 174.954L49.6711 174.959L49.641 180.545C49.6359 181.49 49.1713 182.003 48.3119 182.007C47.5439 182.012 47.1652 181.525 47.1092 180.94L47.1041 180.886L46.1374 180.892L46.1423 180.967C46.2169 182.078 46.9697 182.906 48.3125 182.899ZM54.0438 182.787C54.8226 182.783 55.4313 182.441 55.7999 181.821L55.8858 181.821L55.8812 182.675L56.8158 182.67L56.8371 178.706C56.8436 177.503 56.058 176.782 54.6454 176.79C53.4101 176.797 52.5259 177.414 52.3707 178.322L52.3651 178.355L53.2997 178.349L53.3051 178.333C53.458 177.881 53.9159 177.621 54.6087 177.617C55.4735 177.612 55.9064 177.997 55.9026 178.711L55.8998 179.237L54.2396 179.349C52.891 179.437 52.1251 180.037 52.1195 181.068L52.1195 181.079C52.1138 182.132 52.9427 182.793 54.0438 182.787ZM53.0756 181.052L53.0757 181.041C53.0788 180.467 53.4672 180.153 54.3483 180.095L55.8957 179.989L55.8929 180.516C55.8884 181.343 55.1922 181.97 54.2415 181.975C53.5701 181.979 53.0725 181.638 53.0756 181.052ZM58.5238 182.66L59.4583 182.655L59.4768 179.229C59.4823 178.213 60.0711 177.587 60.9949 177.582C61.9187 177.577 62.3457 178.074 62.3401 179.116L62.3211 182.639L63.2556 182.634L63.2758 178.885C63.2832 177.51 62.5623 176.746 61.2625 176.753C60.4085 176.758 59.8641 177.121 59.5708 177.735L59.4848 177.735L59.4895 176.865L58.555 176.87L58.5238 182.66Z" fill="#818586"/>
<path d="M20.8802 157.988C22.5936 157.979 23.6332 156.41 23.6467 153.918L23.6467 153.907C23.6602 151.415 22.6373 149.863 20.924 149.872C19.2106 149.882 18.1817 151.445 18.1683 153.937L18.1682 153.948C18.1548 156.44 19.1669 157.998 20.8802 157.988ZM20.8848 157.145C19.773 157.151 19.1297 155.919 19.1404 153.943L19.1405 153.932C19.1511 151.955 19.8076 150.727 20.9194 150.721C22.0312 150.715 22.6852 151.936 22.6746 153.913L22.6745 153.923C22.6639 155.9 21.9966 157.139 20.8848 157.145Z" fill="#818586"/>
<path d="M4.91945 120.948L9.93598 120.92L9.94067 120.05L6.2669 120.07L6.26736 119.984L8.03887 118.154C9.44849 116.701 9.8333 116.055 9.83808 115.168L9.83814 115.158C9.84489 113.906 8.81323 112.993 7.45974 113.001C5.97734 113.009 4.90855 114.003 4.89577 115.378L4.90648 115.383L5.83026 115.384L5.83569 115.373C5.84061 114.46 6.46155 113.85 7.39074 113.844C8.30381 113.839 8.85372 114.449 8.84932 115.265L8.84927 115.276C8.84562 115.953 8.55341 116.357 7.55938 117.431L4.92304 120.282L4.91945 120.948ZM14.1512 121.08C15.8646 121.07 16.9043 119.501 16.9177 117.009L16.9177 116.999C16.9312 114.506 15.9083 112.954 14.195 112.964C12.4816 112.973 11.4527 114.537 11.4393 117.029L11.4393 117.039C11.4258 119.532 12.4379 121.089 14.1512 121.08ZM14.1558 120.236C13.044 120.242 12.4008 119.011 12.4114 117.034L12.4115 117.023C12.4221 115.047 13.0786 113.819 14.1904 113.813C15.3022 113.806 15.9562 115.027 15.9456 117.004L15.9455 117.015C15.9349 118.991 15.2676 120.23 14.1558 120.236ZM21.0798 121.041C22.7932 121.032 23.8329 119.463 23.8463 116.971L23.8463 116.961C23.8598 114.468 22.8369 112.916 21.1236 112.926C19.4102 112.935 18.3813 114.498 18.3679 116.991L18.3679 117.001C18.3544 119.493 19.3665 121.051 21.0798 121.041ZM21.0844 120.198C19.9726 120.204 19.3294 118.973 19.34 116.996L19.3401 116.985C19.3507 115.009 20.0072 113.781 21.119 113.774C22.2308 113.768 22.8848 114.989 22.8742 116.966L22.8741 116.977C22.8635 118.953 22.1962 120.192 21.0844 120.198Z" fill="#818586"/>
<path d="M8.21762 83.984L9.16292 83.9788L9.17157 82.3728L10.2726 82.3668L10.2773 81.502L9.17624 81.5081L9.2047 76.2284L7.80286 76.2361C6.7092 77.8587 5.51202 79.7558 4.4552 81.5179L4.45045 82.3988L8.22628 82.378L8.21762 83.984ZM5.44335 81.534L5.4437 81.4695C6.29462 80.0416 7.31837 78.4354 8.19548 77.1309L8.25993 77.1305L8.23628 81.5186L5.44335 81.534ZM14.3503 84.1329C16.0637 84.1235 17.1033 82.5548 17.1168 80.0627L17.1168 80.0519C17.1303 77.5598 16.1074 76.0079 14.3941 76.0173C12.6807 76.0267 11.6518 77.5899 11.6384 80.082L11.6383 80.0928C11.6249 82.5849 12.637 84.1423 14.3503 84.1329ZM14.3549 83.2896C13.2431 83.2957 12.5998 82.064 12.6105 80.0874L12.6106 80.0767C12.6212 78.1002 13.2777 76.872 14.3895 76.8659C15.5013 76.8598 16.1553 78.0807 16.1447 80.0573L16.1446 80.068C16.134 82.0446 15.4667 83.2835 14.3549 83.2896ZM21.2789 84.0948C22.9923 84.0854 24.032 82.5168 24.0454 80.0246L24.0454 80.0139C24.0589 77.5217 23.036 75.9698 21.3227 75.9792C19.6093 75.9886 18.5804 77.5518 18.567 80.044L18.567 80.0547C18.5535 82.5469 19.5656 84.1042 21.2789 84.0948ZM21.2835 83.2516C20.1717 83.2577 19.5285 82.0259 19.5391 80.0494L19.5392 80.0386C19.5498 78.0621 20.2063 76.8339 21.3181 76.8278C22.4299 76.8217 23.0839 78.0427 23.0733 80.0192L23.0732 80.03C23.0626 82.0065 22.3953 83.2455 21.2835 83.2516Z" fill="#818586"/>
<path d="M7.69077 47.2239C9.25373 47.2153 10.4092 46.0865 10.4175 44.5396L10.4176 44.5289C10.4256 43.0411 9.34662 41.9406 7.89107 41.9486C6.84372 41.9544 6.11023 42.5224 5.82215 43.1577L5.7201 43.1583C5.72041 43.0992 5.72076 43.0347 5.72645 42.9756C5.79425 41.3586 6.37636 39.9805 7.78356 39.9727C8.56773 39.9684 9.10803 40.3683 9.34085 41.0169L9.36202 41.0758L10.3342 41.0705L10.3184 41.0008C10.0614 39.8582 9.09875 39.1008 7.79897 39.108C5.91911 39.1183 4.80972 40.6712 4.79547 43.3137L4.79541 43.3245C4.77969 46.2409 6.27282 47.2317 7.69077 47.2239ZM5.94352 44.5535L5.94355 44.5481C5.94899 43.5383 6.71564 42.7983 7.72002 42.7928C8.7244 42.7873 9.45087 43.5245 9.44531 44.5557L9.44525 44.5664C9.43984 45.5708 8.65678 46.3646 7.68463 46.37C6.70173 46.3754 5.93802 45.5739 5.94352 44.5535ZM14.5496 47.1862C16.2629 47.1768 17.3026 45.6082 17.316 43.116L17.3161 43.1053C17.3295 40.6132 16.3066 39.0612 14.5933 39.0706C12.8799 39.08 11.8511 40.6432 11.8376 43.1354L11.8376 43.1461C11.8241 45.6383 12.8362 47.1956 14.5496 47.1862ZM14.5541 46.343C13.4423 46.3491 12.7991 45.1173 12.8097 43.1408L12.8098 43.1301C12.8204 41.1535 13.4769 39.9254 14.5887 39.9193C15.7005 39.9131 16.3546 41.1341 16.3439 43.1106L16.3438 43.1214C16.3332 45.0979 15.6659 46.3369 14.5541 46.343ZM21.4782 47.1482C23.1915 47.1388 24.2312 45.5701 24.2446 43.078L24.2447 43.0672C24.2581 40.5751 23.2353 39.0232 21.5219 39.0326C19.8085 39.042 18.7797 40.6052 18.7662 43.0973L18.7662 43.1081C18.7527 45.6002 19.7648 47.1576 21.4782 47.1482ZM21.4827 46.3049C20.3709 46.311 19.7277 45.0793 19.7383 43.1027L19.7384 43.092C19.749 41.1155 20.4055 39.8873 21.5173 39.8812C22.6291 39.8751 23.2832 41.0961 23.2725 43.0726L23.2724 43.0833C23.2618 45.0599 22.5945 46.2988 21.4827 46.3049Z" fill="#818586"/>
<path d="M7.77737 10.2242C9.4209 10.2152 10.5968 9.28492 10.6038 7.98513L10.6038 7.97439C10.609 7.01835 9.94188 6.22712 8.94949 6.00163L8.94961 5.98014C9.79964 5.7123 10.3402 5.06483 10.3446 4.24844L10.3447 4.23769C10.351 3.06681 9.28682 2.20795 7.82053 2.21601C6.35425 2.22406 5.28075 3.09466 5.27444 4.26555L5.27438 4.27629C5.26998 5.09268 5.80361 5.73425 6.65081 5.99277L6.6507 6.01426C5.65581 6.25067 4.98015 7.04927 4.975 8.00531L4.97494 8.01605C4.96794 9.31583 6.13384 10.2332 7.77737 10.2242ZM7.80215 5.6266C6.86759 5.63173 6.23131 5.10351 6.23536 4.35157L6.23542 4.34083C6.23947 3.58889 6.88149 3.05365 7.81605 3.04851C8.7506 3.04338 9.38689 3.5716 9.38283 4.32354L9.38278 4.33428C9.37872 5.08623 8.73671 5.62147 7.80215 5.6266ZM7.78191 9.38094C6.71308 9.38681 5.95364 8.78945 5.95816 7.95157L5.95821 7.94083C5.96279 7.09221 6.72337 6.48112 7.79757 6.47522C8.87178 6.46932 9.62582 7.07209 9.62124 7.92071L9.62119 7.93145C9.61667 8.76933 8.85074 9.37507 7.78191 9.38094ZM14.7487 10.2396C16.462 10.2302 17.5017 8.66156 17.5151 6.16941L17.5152 6.15867C17.5286 3.66652 16.5057 2.11459 14.7924 2.124C13.079 2.13341 12.0502 3.69661 12.0367 6.18876L12.0367 6.19951C12.0232 8.69166 13.0353 10.249 14.7487 10.2396ZM14.7532 9.39636C13.6414 9.40246 12.9982 8.1707 13.0088 6.19417L13.0089 6.18342C13.0195 4.20689 13.676 2.97873 14.7878 2.97262C15.8996 2.96651 16.5537 4.18748 16.543 6.16401L16.5429 6.17475C16.5323 8.15129 15.865 9.39025 14.7532 9.39636ZM21.6773 10.2015C23.3906 10.1921 24.4303 8.62351 24.4437 6.13136L24.4438 6.12061C24.4572 3.62846 23.4344 2.07653 21.721 2.08594C20.0077 2.09535 18.9788 3.65855 18.9653 6.15071L18.9653 6.16145C18.9518 8.6536 19.9639 10.211 21.6773 10.2015ZM21.6818 9.3583C20.57 9.36441 19.9268 8.13264 19.9374 6.15611L19.9375 6.14537C19.9481 4.16883 20.6046 2.94067 21.7164 2.93456C22.8282 2.92846 23.4823 4.14942 23.4716 6.12595L23.4715 6.1367C23.4609 8.11323 22.7936 9.35219 21.6818 9.3583Z" fill="#818586"/>
<defs>
<filter id="filter0_dd_1_28" x="237.185" y="85.6656" width="21.7203" height="21.98" filterUnits="userSpaceOnUse" color-interpolation-filters="sRGB">
<feFlood flood-opacity="0" result="BackgroundImageFix"/>
<feColorMatrix in="SourceAlpha" type="matrix" values="0 0 0 0 0 0 0 0 0 0 0 0 0 0 0 0 0 0 127 0" result="hardAlpha"/>
<feOffset dy="2"/>
<feGaussianBlur stdDeviation="2"/>
<feColorMatrix type="matrix" values="0 0 0 0 0.196487 0 0 0 0 0.196487 0 0 0 0 0.279476 0 0 0 0.06 0"/>
<feBlend mode="multiply" in2="BackgroundImageFix" result="effect1_dropShadow_1_28"/>
<feColorMatrix in="SourceAlpha" type="matrix" values="0 0 0 0 0 0 0 0 0 0 0 0 0 0 0 0 0 0 127 0" result="hardAlpha"/>
<feOffset dy="2"/>
<feGaussianBlur stdDeviation="1"/>
<feColorMatrix type="matrix" values="0 0 0 0 0.196487 0 0 0 0 0.196487 0 0 0 0 0.279476 0 0 0 0.06 0"/>
<feBlend mode="multiply" in2="effect1_dropShadow_1_28" result="effect2_dropShadow_1_28"/>
<feBlend mode="normal" in="SourceGraphic" in2="effect2_dropShadow_1_28" result="shape"/>
</filter>
<filter id="filter1_dd_1_28" x="199.14" y="18.1136" width="97.9945" height="78.0189" filterUnits="userSpaceOnUse" color-interpolation-filters="sRGB">
<feFlood flood-opacity="0" result="BackgroundImageFix"/>
<feColorMatrix in="SourceAlpha" type="matrix" values="0 0 0 0 0 0 0 0 0 0 0 0 0 0 0 0 0 0 127 0" result="hardAlpha"/>
<feOffset dy="4"/>
<feGaussianBlur stdDeviation="4"/>
<feColorMatrix type="matrix" values="0 0 0 0 0.196487 0 0 0 0 0.196487 0 0 0 0 0.279476 0 0 0 0.06 0"/>
<feBlend mode="multiply" in2="BackgroundImageFix" result="effect1_dropShadow_1_28"/>
<feColorMatrix in="SourceAlpha" type="matrix" values="0 0 0 0 0 0 0 0 0 0 0 0 0 0 0 0 0 0 127 0" result="hardAlpha"/>
<feOffset dy="4"/>
<feGaussianBlur stdDeviation="2"/>
<feColorMatrix type="matrix" values="0 0 0 0 0.196487 0 0 0 0 0.196487 0 0 0 0 0.279476 0 0 0 0.08 0"/>
<feBlend mode="multiply" in2="effect1_dropShadow_1_28" result="effect2_dropShadow_1_28"/>
<feBlend mode="normal" in="SourceGraphic" in2="effect2_dropShadow_1_28" result="shape"/>
</filter>
</defs>
</svg>
